<svg xmlns="http://www.w3.org/2000/svg" viewBox="0 0 44.4 48.19"><defs><style>.cls-1{fill:#662d91;}.cls-2{fill:#fff;}</style></defs><g id="Layer_2" data-name="Layer 2"><g id="Layer_1-2" data-name="Layer 1"><rect class="cls-1" width="44.4" height="48.19" rx="9.05"/><path class="cls-2" d="M37.13,33.64a1.12,1.12,0,0,1-1.12.71c-2.11.13-4.22.24-6.32.44a25.58,25.58,0,0,0-7.42,1.7,1.13,1.13,0,0,1-.9,0,23.84,23.84,0,0,0-6-1.53c-2.53-.37-5.07-.47-7.62-.61a4,4,0,0,1-.5-.05.88.88,0,0,1-.73-.8c0-.1,0-.2,0-.3v-16c0-.79.35-1.13,1.14-1.1l2.69.09c0-.12,0-.23,0-.33V12.72c0-.75.39-1.11,1.13-1a17.29,17.29,0,0,1,9.69,4c.22.19.42.4.64.61l.12-.08a14.71,14.71,0,0,1,5.66-3.46,18.63,18.63,0,0,1,4.62-1,.9.9,0,0,1,1.08,1v3.43H34c.66,0,1.32,0,2,0a1,1,0,0,1,1.14.72Zm-16.21-.18V19.32c0-1.55,0-1.56-1.21-2.56a15.12,15.12,0,0,0-6.18-2.91c-.44-.11-.89-.19-1.37-.28v.35q0,7.38,0,14.77c0,.27.1.35.33.4A19.75,19.75,0,0,1,17.43,31,18.29,18.29,0,0,1,20.92,33.46Zm1.8,0,.15-.11a18.81,18.81,0,0,1,8.32-4.24c.25-.06.3-.16.3-.4V13.59l-.32,0a17.26,17.26,0,0,0-3.8,1.11,12.1,12.1,0,0,0-4.43,3,.85.85,0,0,0-.22.59V33.44Zm12.59-.86V17.93h-2V29.57a.93.93,0,0,1-.87,1.08,18.27,18.27,0,0,0-5.14,1.8c-.63.34-1.24.74-1.86,1.1l0,.08A61.3,61.3,0,0,1,35.31,32.58ZM8.33,18V32.58a62.81,62.81,0,0,1,9.87,1,2.59,2.59,0,0,0-.42-.32,17.7,17.7,0,0,0-6.29-2.58c-1-.2-1.14-.39-1.14-1.37V18Z"/><path class="cls-2" d="M19,20.76a1,1,0,0,1-1.38.82A8.26,8.26,0,0,0,15,20.49a.86.86,0,0,1-.63-1,.88.88,0,0,1,1-.76,7.47,7.47,0,0,1,3.33,1.37A2,2,0,0,1,19,20.76Z"/><path class="cls-2" d="M18.93,25.88a.91.91,0,0,1-1.34.8c-.43-.22-.84-.47-1.27-.66a7.53,7.53,0,0,0-1.22-.39.94.94,0,0,1-.73-1.07.9.9,0,0,1,1.1-.7,9.19,9.19,0,0,1,3.06,1.29A.87.87,0,0,1,18.93,25.88Z"/><path class="cls-2" d="M25.66,21.69a.92.92,0,0,1-.93-.6.85.85,0,0,1,.28-1,7.74,7.74,0,0,1,3.28-1.34.88.88,0,0,1,1,.74.86.86,0,0,1-.66,1A7.54,7.54,0,0,0,26,21.58,1.08,1.08,0,0,1,25.66,21.69Z"/><path class="cls-2" d="M29.29,24.72a.89.89,0,0,1-.68.88,8.43,8.43,0,0,0-2.46,1,1.39,1.39,0,0,1-.56.16.85.85,0,0,1-.83-.62.88.88,0,0,1,.34-1,9.37,9.37,0,0,1,3.11-1.31A.9.9,0,0,1,29.29,24.72Z"/></g></g></svg>