<svg xmlns="http://www.w3.org/2000/svg" xmlns:xlink="http://www.w3.org/1999/xlink" viewBox="0 0 174.43 39"><defs><style>.cls-1{fill:none;stroke-miterlimit:10;stroke:url(#New_Gradient_Swatch_1);}.cls-2{font-size:15px;font-family:SegoeUI-Bold, Segoe UI;font-weight:700;letter-spacing:0.01em;}.cls-2,.cls-3{fill:#0071bc;}</style><linearGradient id="New_Gradient_Swatch_1" y1="19.5" x2="174.43" y2="19.5" gradientUnits="userSpaceOnUse"><stop offset="0" stop-color="#37a9e5"/><stop offset="1" stop-color="#3d53b9"/></linearGradient></defs><g id="Layer_2" data-name="Layer 2"><g id="Layer_1-2" data-name="Layer 1"><rect class="cls-1" x="0.5" y="0.5" width="173.43" height="38" rx="10.93"/><text class="cls-2" transform="translate(54.68 24.65)">Add Member</text><path class="cls-3" d="M27.62,29.55a3,3,0,0,1-1.08-.44,2.39,2.39,0,0,1-.91-2.45,10.06,10.06,0,0,1,2.77-5,9.8,9.8,0,0,1,3.68-2.32l.24-.09A5.21,5.21,0,0,1,30.22,15a5,5,0,0,1,1.54-3.71,5.27,5.27,0,1,1,6.9,7.93c.36.15.73.3,1.08.46a.76.76,0,0,1,.48.85.77.77,0,0,1-1.07.57c-.52-.19-1-.42-1.58-.56a8.31,8.31,0,0,0-6,.68A8.43,8.43,0,0,0,27.86,25,8.11,8.11,0,0,0,27.13,27a.8.8,0,0,0,.66.95h9.52a1.47,1.47,0,0,1,.42,0,.75.75,0,0,1,.49.68.78.78,0,0,1-.44.74l-.18.07ZM39.19,15a3.72,3.72,0,1,0-3.64,3.72A3.72,3.72,0,0,0,39.19,15Z"/><path class="cls-3" d="M41.55,29.55a.87.87,0,0,1-.62-1c0-.64,0-1.28,0-1.94h-2a.78.78,0,1,1,0-1.55h2V23.05a.78.78,0,0,1,.79-.85.77.77,0,0,1,.76.84V25.1h.22c.57,0,1.15,0,1.72,0a.87.87,0,0,1,1,.62V26a.87.87,0,0,1-1,.62c-.57,0-1.15,0-1.72,0h-.22c0,.66,0,1.3,0,1.94a.86.86,0,0,1-.63,1Z"/></g></g></svg>