<svg xmlns="http://www.w3.org/2000/svg" viewBox="0 0 44.4 48.19"><defs><style>.cls-1{fill:#f7931e;}.cls-2{fill:#fff;}</style></defs><g id="Layer_2" data-name="Layer 2"><g id="Layer_1-2" data-name="Layer 1"><rect class="cls-1" width="44.4" height="48.19" rx="9.05"/><path class="cls-2" d="M10.1,33.82a.63.63,0,0,1,.59-.27H34.3a.41.41,0,0,1,.43.4.43.43,0,0,1-.43.41,1.47,1.47,0,0,1-.21,0H10.74a.68.68,0,0,1-.64-.27Z"/><path class="cls-2" d="M31,31.91V15.08H33.5a2.44,2.44,0,0,1,0,.27q0,8.15,0,16.3c0,.23-.07.28-.29.28H31Z"/><path class="cls-2" d="M28.56,31.91H26.12V20h2.44Z"/><path class="cls-2" d="M18.71,20.42V31.91H16.27V20.42Z"/><path class="cls-2" d="M13.79,22.86v9.06H11.53c-.16,0-.22,0-.22-.22V23.08c0-.11,0-.22.15-.22Z"/><path class="cls-2" d="M23.65,31.9H21.19V24.53h2.46Z"/></g></g></svg>