<svg xmlns="http://www.w3.org/2000/svg" viewBox="0 0 18.6 19.39"><defs><style>.cls-1{fill:#fff;}</style></defs><g id="Layer_2" data-name="Layer 2"><g id="Layer_1-2" data-name="Layer 1"><path class="cls-1" d="M2.7,2.05A1.88,1.88,0,0,1,3.29.43,1.65,1.65,0,0,1,4.43,0,1.69,1.69,0,0,1,5.76.62C6,.92,6,1,6.19,2h6.24A1.87,1.87,0,0,1,13.18.31a1.68,1.68,0,0,1,1-.31,1.71,1.71,0,0,1,1.29.64,2,2,0,0,1,.4,1.41h.49a2.15,2.15,0,0,1,2.16,1.76,3,3,0,0,1,0,.52c0,.89,0,1.78,0,2.67q0,5.07,0,10.14A2.16,2.16,0,0,1,17.73,19a2,2,0,0,1-1.09.42h-.32c-4.68,0-9.36,0-14,0A2.18,2.18,0,0,1,0,17.13V4.28A2.17,2.17,0,0,1,2.22,2.05ZM17.62,7.83H1v9.3a1.18,1.18,0,0,0,1.28,1.29h14.1a1.58,1.58,0,0,0,.38,0,1.15,1.15,0,0,0,.89-1.25V7.83ZM15.89,3l-.06.2a1.73,1.73,0,0,1-1.65,1.24,1.7,1.7,0,0,1-1.66-1.23A.24.24,0,0,0,12.24,3H6.16l-.06.15a1.72,1.72,0,0,1-3.27.22c-.05-.12-.07-.29-.16-.34S2.4,3,2.26,3A1.19,1.19,0,0,0,1,4.31V6.65c0,.06,0,.12,0,.19H17.62c0-.92,0-1.83,0-2.74A1.06,1.06,0,0,0,17,3.17,2.1,2.1,0,0,0,15.89,3Zm-2.48-.8h0c0,.18,0,.37,0,.56a.75.75,0,0,0,.69.7.7.7,0,0,0,.8-.6,6.47,6.47,0,0,0,0-1.32A.71.71,0,0,0,14.12,1a.76.76,0,0,0-.71.72C13.4,1.86,13.41,2,13.41,2.23Zm-9.74,0c0,.18,0,.35,0,.53a.76.76,0,0,0,.69.73.72.72,0,0,0,.81-.62,6.84,6.84,0,0,0,0-1.28A.72.72,0,0,0,4.4,1a.77.77,0,0,0-.73.73C3.66,1.87,3.67,2.05,3.67,2.23Z"/><path class="cls-1" d="M8.53,14l.17-.16c1-.94,1.93-1.88,2.88-2.83.36-.35.65-.27.81-.11s.23.47-.12.81c-1.1,1-2.18,2.12-3.27,3.19-.36.35-.58.35-.94,0-.59-.57-1.18-1.14-1.76-1.72a.48.48,0,0,1-.12-.67.47.47,0,0,1,.64-.14l.21.18Z"/></g></g></svg>