<svg xmlns="http://www.w3.org/2000/svg" viewBox="0 0 44.4 48.19"><defs><style>.cls-1{fill:#8cc63f;}.cls-2{fill:#fff;}</style></defs><g id="Layer_2" data-name="Layer 2"><g id="Layer_1-2" data-name="Layer 1"><rect class="cls-1" width="44.4" height="48.19" rx="9.05"/><path class="cls-2" d="M13.77,14.9A2.2,2.2,0,0,1,14.46,13a2,2,0,0,1,2.88.22c.3.35.31.38.52,1.66h7.29a2.14,2.14,0,0,1,.86-2,1.92,1.92,0,0,1,1.22-.37,2,2,0,0,1,1.51.75,2.33,2.33,0,0,1,.46,1.65h.58a2.51,2.51,0,0,1,2.52,2,3.13,3.13,0,0,1,0,.61v3.12q0,5.91,0,11.84a2.55,2.55,0,0,1-1,2.13,2.3,2.3,0,0,1-1.28.49H13.28a2.53,2.53,0,0,1-2.14-1,2.56,2.56,0,0,1-.52-1.65v-15a2.52,2.52,0,0,1,2.59-2.6Zm17.44,6.75H11.75V32.51a1.37,1.37,0,0,0,1.5,1.5q8.24,0,16.47,0a1.71,1.71,0,0,0,.45,0,1.35,1.35,0,0,0,1-1.46V21.65Zm-2-5.61c0,.08-.05.15-.07.23a2,2,0,0,1-1.93,1.45,2,2,0,0,1-1.93-1.44.28.28,0,0,0-.33-.25H17.81a1.62,1.62,0,0,1-.06.17A2,2,0,0,1,16,17.71a2,2,0,0,1-2.07-1.25c-.06-.14-.08-.34-.18-.4s-.32,0-.49,0a1.4,1.4,0,0,0-1.5,1.5v2.74a1.8,1.8,0,0,0,0,.22H31.2c0-1.08,0-2.14,0-3.2a1.23,1.23,0,0,0-.71-1.09A2.5,2.5,0,0,0,29.18,16Zm-2.89-.94h0c0,.22,0,.44,0,.66a.87.87,0,0,0,.8.82.83.83,0,0,0,.94-.7,8,8,0,0,0,0-1.55.83.83,0,0,0-.91-.71.88.88,0,0,0-.83.84C26.28,14.67,26.29,14.89,26.29,15.1Zm-11.38,0c0,.2,0,.41,0,.61a.89.89,0,0,0,.81.86.83.83,0,0,0,.94-.73,9.39,9.39,0,0,0,0-1.5.84.84,0,0,0-.9-.72.87.87,0,0,0-.85.84C14.9,14.69,14.91,14.9,14.91,15.11Z"/><path class="cls-2" d="M20.58,28.85l.2-.19c1.13-1.09,2.26-2.19,3.37-3.3.41-.41.76-.32,1-.12s.26.55-.15.94c-1.28,1.23-2.55,2.48-3.82,3.72-.42.41-.68.41-1.1,0l-2.06-2a.57.57,0,0,1-.13-.78.54.54,0,0,1,.74-.17,1.27,1.27,0,0,1,.25.21C19.42,27.71,20,28.28,20.58,28.85Z"/></g></g></svg>