<svg xmlns="http://www.w3.org/2000/svg" viewBox="0 0 44.4 48.19"><defs><style>.cls-1{fill:#93278f;}.cls-2{fill:#fff;}</style></defs><g id="Layer_2" data-name="Layer 2"><g id="Layer_1-2" data-name="Layer 1"><rect class="cls-1" width="44.4" height="48.19" rx="9.05"/><path class="cls-2" d="M23,9.38c.42.34.85.66,1.25,1a1,1,0,0,1,.25.51,6.15,6.15,0,0,1,0,.86c0,.32-.18.5-.45.5a.42.42,0,0,1-.44-.49,1.19,1.19,0,0,0-.8-1.35l-.84.68a.49.49,0,0,1-.7,0l-.69-.57a.22.22,0,0,0-.34,0c-.23.2-.47.39-.72.59a.48.48,0,0,1-.65,0L18,10.41l-.83.67a.5.5,0,0,1-.77,0c-.22-.18-.44-.38-.68-.54-.07,0-.19,0-.29,0s0,0-.05,0a1.19,1.19,0,0,0-.59,1.21c0,1.94,0,3.88,0,5.81v.36h8.82V14.08a1.67,1.67,0,0,1,0-.32.42.42,0,0,1,.47-.34.4.4,0,0,1,.4.41c0,.21,0,.43,0,.69H25a2.44,2.44,0,0,1,2.6,2.34c.12,1.07.21,2.14.32,3.21,0,.09,0,.18,0,.3h4.65a2.06,2.06,0,0,1,2.1,1.54,1.84,1.84,0,0,1,.06.47c0,1,0,1.94,0,2.91a.46.46,0,0,1-.46.52c-.27,0-.44-.21-.44-.54V22.6a1.17,1.17,0,0,0-1.33-1.32H28a58.86,58.86,0,0,1-.55,10.18l.33,0h4.8a1.16,1.16,0,0,0,1.31-1.31V27.44c0-.22.08-.42.31-.45a.66.66,0,0,1,.45.11.46.46,0,0,1,.13.35c0,1,0,2,0,2.93a2,2,0,0,1-2.11,2H27.32c-.08.51-.15,1-.24,1.5-.26,1.36-.49,2.73-.8,4.08a3.83,3.83,0,0,1-.65,1.33,1.88,1.88,0,0,1-1.61.78H14.4a2.16,2.16,0,0,1-2-1.23,7,7,0,0,1-.6-2.15A77.33,77.33,0,0,1,10.67,29a51.46,51.46,0,0,1-.15-9.37c.08-1,.16-2,.32-2.94a2.36,2.36,0,0,1,1.81-2.08,3.44,3.44,0,0,1,.72-.06h.52V13c0-.67,0-1.34,0-2a.72.72,0,0,1,.32-.66c.4-.31.79-.65,1.18-1h.36l1,.86,1.07-.86h.3l1.08.86,1-.86h.36l1,.86,1.07-.86Zm-9.12,6h-.7a1.27,1.27,0,0,0-1.2.7,2.63,2.63,0,0,0-.29.87,51.19,51.19,0,0,0-.13,11.93c.26,2.6.69,5.18,1.2,7.75a10.55,10.55,0,0,0,.35,1.45,1.42,1.42,0,0,0,1.54,1.06h9.23a1.35,1.35,0,0,0,1.26-.72,3.54,3.54,0,0,0,.32-.86,83.93,83.93,0,0,0,1.46-9.47A50.43,50.43,0,0,0,26.73,17a1.66,1.66,0,0,0-2.2-1.56V18a2.77,2.77,0,0,1,.71,0,.66.66,0,0,1,.4.33.54.54,0,0,1-.14.44.72.72,0,0,1-.45.11c-1.69,0-3.39,0-5.09,0-2.22,0-4.44,0-6.66,0-.36,0-.55-.15-.56-.43s.2-.46.57-.47h.57Z"/><path class="cls-2" d="M30.84,26.06h-1.2c-.38,0-.53-.15-.53-.52q0-1.24,0-2.49c0-.34.15-.49.49-.5h2.52c.34,0,.49.16.49.51,0,.83,0,1.66,0,2.48,0,.36-.16.51-.51.52ZM30,25.14h1.67V23.47H30Z"/><path class="cls-2" d="M19.22,15.44H16c-.41,0-.66-.33-.47-.63a.62.62,0,0,1,.44-.25q3.24,0,6.49,0a.44.44,0,0,1,.49.44c0,.28-.19.45-.51.45Z"/><path class="cls-2" d="M17.57,12.8H19.1c.35,0,.55.17.55.45s-.2.45-.55.45H16c-.35,0-.56-.18-.56-.45s.21-.45.56-.45Z"/><path class="cls-2" d="M30.42,28.75c0-.49,0-1,0-1.47s.16-.53.42-.54.47.19.47.54q0,1.5,0,3c0,.33-.17.52-.45.52s-.44-.18-.44-.52C30.41,29.77,30.42,29.26,30.42,28.75Z"/><path class="cls-2" d="M23.61,20.92h-8.8v5.35h8.8V24.86a1.22,1.22,0,0,1,0-.33.42.42,0,0,1,.48-.35.39.39,0,0,1,.39.41q0,1.1,0,2.19c0,.24-.16.37-.4.4a1,1,0,0,1-.24,0H14.57c-.55,0-.68-.13-.68-.66V20.65c0-.51.14-.65.67-.65h9.29c.54,0,.66.13.66.68v1.79c0,.36-.17.56-.45.56s-.45-.22-.45-.56Z"/><path class="cls-2" d="M15.28,34.32h.86a.45.45,0,1,1,0,.9H14.4a.45.45,0,0,1-.5-.44.47.47,0,0,1,.51-.46h.87Z"/><path class="cls-2" d="M15.24,33H14.4a.46.46,0,0,1-.5-.45.45.45,0,0,1,.47-.44c.59,0,1.19,0,1.79,0a.45.45,0,0,1,.47.44.46.46,0,0,1-.49.45Z"/><path class="cls-2" d="M15.24,30.68h-.87a.44.44,0,1,1,0-.88q.93,0,1.86,0a.44.44,0,0,1,.44.47.43.43,0,0,1-.46.41Z"/><path class="cls-2" d="M23.14,30.67h-.9a.44.44,0,0,1,0-.88c.63,0,1.27,0,1.91,0a.41.41,0,0,1,.39.48.4.4,0,0,1-.43.4Z"/><path class="cls-2" d="M23.14,33h-.89a.45.45,0,1,1,0-.89q.93,0,1.86,0a.41.41,0,0,1,.42.45A.43.43,0,0,1,24,33Z"/><path class="cls-2" d="M19.18,30.67h-.87a.44.44,0,1,1,0-.88q.94,0,1.89,0a.41.41,0,0,1,.4.47.42.42,0,0,1-.45.41Z"/><path class="cls-2" d="M19.22,33h-.9a.45.45,0,1,1,0-.9h1.77a.46.46,0,0,1,.48.47c0,.26-.2.42-.51.43Z"/><path class="cls-2" d="M19.19,35.22h-.86a.46.46,0,0,1-.49-.46.45.45,0,0,1,.48-.43h1.77a.45.45,0,1,1,0,.89Z"/><path class="cls-2" d="M23.15,35.22h-.87a.44.44,0,0,1-.49-.45.45.45,0,0,1,.49-.45H24a.46.46,0,0,1,.5.45.45.45,0,0,1-.49.45Z"/></g></g></svg>