<svg xmlns="http://www.w3.org/2000/svg" viewBox="0 0 44.4 48.19"><defs><style>.cls-1{fill:#009245;}.cls-2{fill:#fff;}</style></defs><g id="Layer_2" data-name="Layer 2"><g id="Layer_1-2" data-name="Layer 1"><rect class="cls-1" width="44.4" height="48.19" rx="9.05"/><path class="cls-2" d="M29.93,18.78a.52.52,0,0,0-.38-.15H26.69a5.82,5.82,0,0,0-1.07-2.41h3.89a.51.51,0,0,0,.54-.54V14a.51.51,0,0,0-.54-.54H15.6a.51.51,0,0,0-.54.54V16.2a.55.55,0,0,0,.54.54H18c2.36,0,3.85.63,4.49,1.89H15.6a.53.53,0,0,0-.39.15.5.5,0,0,0-.15.38v1.71a.52.52,0,0,0,.15.38.53.53,0,0,0,.39.15h7.14A3.28,3.28,0,0,1,21,23.49a7.58,7.58,0,0,1-3.56.72H15.6a.51.51,0,0,0-.38.16.55.55,0,0,0-.16.38v2.12a.5.5,0,0,0,.15.37q3.21,3.41,8.33,9.55A.5.5,0,0,0,24,37h3.26a.49.49,0,0,0,.49-.3.46.46,0,0,0-.07-.57c-3.26-4-5.81-7-7.68-9a8.47,8.47,0,0,0,4.62-1.83,6.3,6.3,0,0,0,2.16-3.92h2.81a.51.51,0,0,0,.53-.53V19.16A.52.52,0,0,0,29.93,18.78Z"/></g></g></svg>