<svg xmlns="http://www.w3.org/2000/svg" xmlns:xlink="http://www.w3.org/1999/xlink" viewBox="0 0 174.43 39"><defs><style>.cls-1{fill:none;stroke-miterlimit:10;stroke:url(#New_Gradient_Swatch_1);}.cls-2{font-size:15px;font-family:SegoeUI-Bold, Segoe UI;font-weight:700;letter-spacing:0.01em;}.cls-2,.cls-3{fill:#0071bc;}</style><linearGradient id="New_Gradient_Swatch_1" y1="19.5" x2="174.43" y2="19.5" gradientUnits="userSpaceOnUse"><stop offset="0" stop-color="#37a9e5"/><stop offset="1" stop-color="#3d53b9"/></linearGradient></defs><g id="Layer_2" data-name="Layer 2"><g id="Layer_1-2" data-name="Layer 1"><rect class="cls-1" x="0.5" y="0.5" width="173.43" height="38" rx="10.93"/><text class="cls-2" transform="translate(56.72 24.65) scale(0.95 1)"><tspan xml:space="preserve"> Get QR Code</tspan></text><path class="cls-3" d="M46.74,25.48v.86h1c.2,0,.39,0,.59,0a.43.43,0,0,1,.48.42.43.43,0,0,1-.48.42H46.73V30c0,.35-.16.55-.43.55s-.42-.2-.42-.56V28.9H45v.76c0,.31-.17.5-.42.5s-.43-.19-.43-.5V28.9h-.85v.78c0,.29-.17.48-.42.48s-.43-.18-.43-.49V23.36h-.77c-.32,0-.51-.17-.51-.43s.19-.42.5-.42.5,0,.76,0v-.85h-1c-.57,0-.67-.1-.68-.66v-.2H38.7a.43.43,0,0,1-.48-.47V19.1H37.07c-.4,0-.55-.14-.55-.54V16.25c0-.35.16-.55.43-.55s.42.2.42.56v2h.85v-.36a.44.44,0,0,1,.43-.48.43.43,0,0,1,.42.48c0,.64,0,1.27,0,1.91,0,0,0,.09,0,.16h2c.44,0,.57.14.58.57v.28h1.15c.4,0,.55.14.55.54v3.26h3.83V24c0-.49,0-1,0-1.47a.43.43,0,0,1,.43-.47.42.42,0,0,1,.41.46c0,.83,0,1.66,0,2.5a.41.41,0,0,1-.45.44Zm-.87,0H43.35V28h2.52Z"/><path class="cls-3" d="M29.28,22.93v-.85H28.13c-.34,0-.53-.15-.54-.41s.19-.44.54-.44h1.49c.37,0,.52.15.52.52v1.16H31v-2c0-.37.15-.52.54-.52h.31V19.22c0-.4.15-.54.55-.54H34v-.85H32.74c-.32,0-.53-.23-.46-.5A.4.4,0,0,1,32.7,17c.56,0,1.11,0,1.67,0,.29,0,.44.17.45.48v1.21c.35,0,.81-.1.84.45,0,.29-.18.38-.84.42v.76c0,.31-.17.5-.42.5s-.43-.19-.43-.5v-.75H32.71v.83h.41a.42.42,0,0,1,.42.42c0,.29,0,.57,0,.85a.42.42,0,0,1-.42.43.43.43,0,0,1-.43-.42v-.41h-.84v1.68h1.21a.45.45,0,0,1,.48.48c0,.23-.21.37-.5.37H28.12c-.34,0-.53-.16-.53-.42s.19-.43.53-.43Z"/><path class="cls-3" d="M35.68,26.34V28H36c.36,0,.51.15.51.52v1.15l.17.07a.41.41,0,0,1,.25.46.39.39,0,0,1-.39.34c-.58,0-1.17,0-1.75,0a.4.4,0,0,1-.4-.41.41.41,0,0,1,.41-.43h.84v-.85H35c-.35,0-.53-.12-.57-.36s.09-.39.42-.52v-2c0-.44.13-.57.57-.58h.71v-1c0-.6.08-.69.68-.7h.15V23H35.24v1c0,.11,0,.21,0,.32a.4.4,0,0,1-.42.37.37.37,0,0,1-.41-.37c0-.6,0-1.2,0-1.8,0-.25.2-.37.44-.38h.83V20.53c0-.38.15-.58.43-.57s.42.2.42.56v1.56h.79c.33,0,.48.16.49.5v1.2h.39a.42.42,0,0,1,.45.45q0,.82,0,1.65c0,.3-.17.45-.5.45H35.68Zm2.1-.87v-.82H37v.82Z"/><path class="cls-3" d="M33.54,11.46v2.42c0,.4-.14.54-.54.54H28.13c-.4,0-.54-.14-.54-.54V9c0-.4.14-.54.54-.54H33c.41,0,.55.14.55.54Zm-5.09,2.09h4.22V9.33H28.45Z"/><path class="cls-3" d="M30.57,24.63H33c.4,0,.55.15.55.54V30c0,.4-.14.55-.54.55H28.14c-.41,0-.55-.15-.55-.54V25.18c0-.4.14-.55.54-.55Zm-2.11.87v4.22h4.22V25.5Z"/><path class="cls-3" d="M43.75,11.45V9c0-.38.15-.53.53-.53h4.9c.38,0,.53.15.53.53v4.89c0,.38-.15.53-.53.53h-4.9c-.38,0-.53-.15-.53-.53Zm5.09,2.11V9.34H44.62v4.22Z"/><path class="cls-3" d="M42.05,14.42h.73c.4,0,.54.15.55.55v.3h2.86c.34,0,.54.16.54.43s-.19.42-.53.42H44.62V17.4a2.91,2.91,0,0,1,.42,0,.4.4,0,0,1,.41.4.41.41,0,0,1-.41.44c-.29,0-.58,0-.88,0s-.4-.19-.41-.49V16.13h-.69c-.45,0-.58-.13-.58-.58v-.27h-.75c-.37,0-.53-.15-.53-.51V13.65c0-.31.17-.5.43-.5s.42.19.42.51Z"/><path class="cls-3" d="M48.85,18.68v-.85H47.7c-.34,0-.53-.16-.54-.42s.19-.43.54-.43.75,0,1.14,0v-.85h-.73c-.34,0-.53-.16-.53-.43s.2-.41.54-.42h1.09c.33,0,.5.15.5.48v3.29a.44.44,0,0,1-.48.48h-2a.44.44,0,0,1-.48-.43.43.43,0,0,1,.48-.42Z"/><path class="cls-3" d="M40.78,28H40v1.7h.4a.42.42,0,0,1,.42.43.42.42,0,0,1-.42.42H38.22a.43.43,0,0,1,0-.85h.85V27.66c0-.29.16-.47.43-.47.57,0,1.14,0,1.7,0a.4.4,0,0,1,.42.42c0,.29,0,.57,0,.85a.42.42,0,0,1-.42.43.43.43,0,0,1-.42-.43C40.77,28.33,40.78,28.2,40.78,28Z"/><path class="cls-3" d="M35.24,11.45H36c.35,0,.51.15.51.5v1.2h1.63c.31,0,.5.17.5.43a.45.45,0,0,1-.51.42h-2c-.34,0-.5-.16-.5-.51V12.3h-.79a.45.45,0,0,1-.49-.5V10.66c0-.3.17-.48.42-.49s.43.19.43.49c0,.13,0,.25,0,.37Z"/><path class="cls-3" d="M26.74,7.62c0,.71,0,1.4,0,2.08a.63.63,0,0,1-.23.4.43.43,0,0,1-.41,0,.51.51,0,0,1-.2-.37c0-.83,0-1.66,0-2.5a.41.41,0,0,1,.45-.44h2.5a.42.42,0,1,1,0,.84Z"/><path class="cls-3" d="M50.56,7.62H48.43A.42.42,0,0,1,48,7.19a.41.41,0,0,1,.42-.42H51a.41.41,0,0,1,.43.42V9.74a.43.43,0,1,1-.85,0V7.62Z"/><path class="cls-3" d="M50.56,31.44V29.33a.42.42,0,0,1,.43-.44.43.43,0,0,1,.42.43v2.45c0,.37-.15.52-.54.52H48.53c-.33,0-.52-.16-.52-.43s.19-.42.53-.42Z"/><path class="cls-3" d="M26.74,31.44h2c.35,0,.54.15.55.41s-.2.44-.55.44H26.41c-.37,0-.52-.15-.52-.51q0-1.19,0-2.37c0-.33.16-.53.43-.52s.41.2.42.54Z"/><path class="cls-3" d="M40.35,10.17V9c0-.4.15-.54.55-.54H42c.31,0,.5.18.49.43s-.19.41-.48.42H41.2v1.11c0,.46-.13.59-.6.59H39.17c-.33,0-.53-.17-.52-.44s.2-.41.51-.41Z"/><path class="cls-3" d="M30.14,17c.28,0,.53,0,.78,0s.5.17.49.43-.19.41-.48.42H29.76a.43.43,0,0,1-.47-.48c0-.4,0-.8,0-1.23-.43,0-.85,0-1.26,0a.6.6,0,0,1-.39-.25.5.5,0,0,1,.05-.41.53.53,0,0,1,.35-.17c.54,0,1.08,0,1.62,0a.43.43,0,0,1,.48.47Z"/><path class="cls-3" d="M34,15.25V13.68c0-.34.16-.53.42-.53s.43.19.43.53v1.94c0,.35-.16.5-.5.5h-2c-.31,0-.5-.16-.51-.42s.19-.42.53-.43h1.51Z"/><path class="cls-3" d="M36.1,9.32H34.89c-.31,0-.5-.17-.49-.43s.19-.42.5-.42h1.54c.35,0,.5.16.5.5s0,.76,0,1.15a.42.42,0,1,1-.84,0c0-.14,0-.27,0-.4Z"/><path class="cls-3" d="M48.43,28.89v1.17c0,.33-.17.53-.43.53s-.42-.2-.42-.51V28.54c0-.34.16-.5.48-.5h1.17a.43.43,0,0,1,.48.42.44.44,0,0,1-.48.43Z"/><path class="cls-3" d="M42.05,11.87V10.71c0-.34.15-.53.42-.54s.43.19.43.52v1.52c0,.36-.15.51-.52.51h-.72a.43.43,0,1,1,0-.85Z"/><path class="cls-3" d="M45,22.93h.79c.29,0,.48.17.48.42s-.18.43-.49.43H44.67a.43.43,0,0,1-.49-.49q0-.59,0-1.17a.42.42,0,0,1,.43-.46.43.43,0,0,1,.42.46Z"/><path class="cls-3" d="M39.5,22.51h-.79c-.3,0-.48-.17-.49-.42s.19-.43.5-.43.76,0,1.14,0,.48.16.49.49v1.14c0,.31-.18.5-.44.49a.44.44,0,0,1-.41-.49Z"/><path class="cls-3" d="M41.4,19.1h-1a.42.42,0,0,1-.46-.43.43.43,0,0,1,.46-.42h2a.43.43,0,0,1,.47.44.42.42,0,0,1-.46.41Z"/><path class="cls-3" d="M46.73,21.23c0,.16,0,.29,0,.42a.44.44,0,0,1-.42.43.42.42,0,0,1-.43-.42,8.42,8.42,0,0,1,0-.87.39.39,0,0,1,.4-.41H47.6a.41.41,0,0,1,.4.41.42.42,0,0,1-.4.44Z"/><path class="cls-3" d="M28.44,19.1v.83a.43.43,0,0,1-.43.45.42.42,0,0,1-.42-.45q0-.83,0-1.65a.42.42,0,0,1,.42-.45.43.43,0,0,1,.43.45Z"/><path class="cls-3" d="M49.71,24.62v.82a.44.44,0,0,1-.44.47.42.42,0,0,1-.41-.46c0-.54,0-1.08,0-1.63a.42.42,0,0,1,.43-.46.44.44,0,0,1,.42.46Z"/><path class="cls-3" d="M44.18,20c-.18,0-.31,0-.44,0a.42.42,0,0,1,0-.84,8.42,8.42,0,0,1,.87,0,.39.39,0,0,1,.41.4,6.46,6.46,0,0,1,0,.88.4.4,0,0,1-.42.41.42.42,0,0,1-.42-.43C44.17,20.24,44.18,20.11,44.18,20Z"/><path class="cls-3" d="M40.56,24.63h.61a.42.42,0,1,1,0,.84H40a.42.42,0,1,1,0-.84Z"/><path class="cls-3" d="M40.35,13v.59a.44.44,0,0,1-.42.46.43.43,0,0,1-.43-.45c0-.41,0-.81,0-1.22a.44.44,0,0,1,.42-.46.43.43,0,0,1,.43.47Z"/><path class="cls-3" d="M49.71,21.44c0,.21,0,.43,0,.64a.43.43,0,0,1-.43.42.42.42,0,0,1-.42-.42c0-.42,0-.85,0-1.27a.42.42,0,0,1,.42-.43.43.43,0,0,1,.43.42C49.72,21,49.71,21.23,49.71,21.44Z"/><path class="cls-3" d="M41.22,16.55c.14,0,.28,0,.42,0a.43.43,0,0,1,.41.42.42.42,0,0,1-.42.43q-.43,0-.87,0a.42.42,0,0,1-.41-.41.43.43,0,0,1,.42-.44C40.92,16.54,41.07,16.55,41.22,16.55Z"/><path class="cls-3" d="M38.67,8.47h.42a.43.43,0,0,1,.41.42.41.41,0,0,1-.4.42,6.76,6.76,0,0,1-.9,0,.4.4,0,0,1-.4-.41.42.42,0,0,1,.42-.43Z"/><path class="cls-3" d="M30.13,19.53H29.7a.41.41,0,0,1-.41-.43.42.42,0,0,1,.41-.41h.87a.42.42,0,0,1,.42.43.42.42,0,0,1-.41.41A3.38,3.38,0,0,1,30.13,19.53Z"/><path class="cls-3" d="M39.49,15.7c-.14,0-.28,0-.42,0a.43.43,0,0,1-.42-.43.42.42,0,0,1,.4-.42c.3,0,.6,0,.91,0a.41.41,0,0,1,.39.42.43.43,0,0,1-.41.42c-.15,0-.3,0-.45,0Z"/><path class="cls-3" d="M38.22,28.05c0,.15,0,.29,0,.43a.42.42,0,0,1-.84,0,6.46,6.46,0,0,1,0-.88.41.41,0,0,1,.41-.4.42.42,0,0,1,.43.41C38.23,27.75,38.22,27.9,38.22,28.05Z"/><path class="cls-3" d="M38,12.29a1.92,1.92,0,0,1-.24,0,.41.41,0,0,1-.38-.43.4.4,0,0,1,.38-.41,2,2,0,0,1,.42,0,.43.43,0,0,1,.47.41.44.44,0,0,1-.47.44H38Z"/><path class="cls-3" d="M45,26.76a.43.43,0,0,1-.43.42.42.42,0,1,1,0-.84A.43.43,0,0,1,45,26.76Z"/><path class="cls-3" d="M30.57,10.17h.8a.43.43,0,0,1,.47.46c0,.54,0,1.08,0,1.62a.42.42,0,0,1-.46.47H29.76a.42.42,0,0,1-.47-.46q0-.81,0-1.62a.42.42,0,0,1,.46-.47ZM31,11.86V11h-.82v.83Z"/><path class="cls-3" d="M31.84,27.63c0,.26,0,.53,0,.79a.44.44,0,0,1-.47.47H29.75a.42.42,0,0,1-.46-.47q0-.81,0-1.62a.42.42,0,0,1,.47-.46q.81,0,1.62,0a.42.42,0,0,1,.46.46C31.85,27.08,31.84,27.35,31.84,27.63Zm-1.69-.43V28H31V27.2Z"/><path class="cls-3" d="M48,11.47v.77a.44.44,0,0,1-.48.48H45.94a.42.42,0,0,1-.48-.47c0-.54,0-1.07,0-1.6a.43.43,0,0,1,.47-.48h1.59a.43.43,0,0,1,.49.47ZM46.33,11v.82h.81V11Z"/></g></g></svg>