<svg xmlns="http://www.w3.org/2000/svg" viewBox="0 0 44.4 48.19"><defs><style>.cls-1{fill:#f15a24;}.cls-2,.cls-3{fill:#fff;}.cls-3{font-size:7.65px;font-family:SegoeUI, Segoe UI;letter-spacing:0.01em;}</style></defs><g id="Layer_2" data-name="Layer 2"><g id="Layer_1-2" data-name="Layer 1"><rect class="cls-1" width="44.4" height="48.19" rx="9.05"/><path class="cls-2" d="M13,39.05a3.24,3.24,0,0,1-1.59-.79,2.76,2.76,0,0,1-.89-1.95c0-.09,0-.19,0-.29q0-10.74,0-21.47a2.89,2.89,0,0,1,2.94-3H30.54a2.86,2.86,0,0,1,2.9,2.4,4.22,4.22,0,0,1,0,.62q0,10.72,0,21.47a2.84,2.84,0,0,1-2.41,3,.1.1,0,0,0-.07,0ZM11.69,25.26V36a1.73,1.73,0,0,0,1.88,1.89H30.45A1.74,1.74,0,0,0,32.33,36V14.56a1.73,1.73,0,0,0-1.88-1.89H13.57a1.73,1.73,0,0,0-1.88,1.89Z"/><path class="cls-2" d="M22,34.46h7.31c.44,0,.68.18.7.53a.56.56,0,0,1-.5.6H14.67c-.44,0-.7-.23-.68-.61a.54.54,0,0,1,.48-.52,1.71,1.71,0,0,1,.32,0Z"/><path class="cls-2" d="M22,29.46h7.31c.44,0,.68.18.7.53a.56.56,0,0,1-.5.6H14.67c-.44,0-.7-.23-.68-.61a.54.54,0,0,1,.48-.52,1.71,1.71,0,0,1,.32,0Z"/><path class="cls-2" d="M22,25.46h7.31c.44,0,.68.18.7.53a.56.56,0,0,1-.5.6H14.67c-.44,0-.7-.23-.68-.61a.54.54,0,0,1,.48-.52,1.71,1.71,0,0,1,.32,0Z"/><text class="cls-3" transform="translate(15.34 21.58)">GST</text></g></g></svg>