<svg xmlns="http://www.w3.org/2000/svg" viewBox="0 0 19.95 19.96"><defs><style>.cls-1{fill:#fff;}</style></defs><g id="Layer_2" data-name="Layer 2"><g id="Layer_1-2" data-name="Layer 1"><path class="cls-1" d="M20,12.7a9.23,9.23,0,0,1-.24.94,4,4,0,0,1-2,2.31.3.3,0,0,0-.18.3,5.45,5.45,0,0,1,0,1.07,1.72,1.72,0,0,1-1.71,1.46H13a.24.24,0,0,0-.26.16,1.7,1.7,0,0,1-1.57,1c-.78,0-1.57,0-2.35,0a1.75,1.75,0,0,1,0-3.5c.79,0,1.57,0,2.36,0a1.69,1.69,0,0,1,1.57,1c.06.11.11.17.25.17h2.77A.59.59,0,0,0,16.4,17v-.52H15.24V8.24h1.15V5.85H14.06V5.38a1.76,1.76,0,0,0-1.88-1.87H7.76A1.76,1.76,0,0,0,5.88,5.4v.44H3.56v2.4H4.7v8.18A4.16,4.16,0,0,1,.08,13.11,4.06,4.06,0,0,1,2.22,8.69a.24.24,0,0,0,.16-.25c0-1,0-2.06,0-3.1A5.27,5.27,0,0,1,6.88.05L7.2,0h5.54c.26.05.52.08.78.14a5.26,5.26,0,0,1,4.05,5.13V8.44a.23.23,0,0,0,.15.25,4.07,4.07,0,0,1,2,2.31c.1.3.15.62.23.92Zm-15.19-8,.06-.18A2.89,2.89,0,0,1,7.57,2.34h4.8a2.83,2.83,0,0,1,1.89.75,2.91,2.91,0,0,1,.91,1.58h1.18a.17.17,0,0,0,0-.08,4.08,4.08,0,0,0-4-3.42c-1.57,0-3.14,0-4.72,0A4,4,0,0,0,5,2.18,4,4,0,0,0,3.58,4.67ZM3.53,15.19V9.47a2.88,2.88,0,0,0-2.36,2.74A3,3,0,0,0,3.53,15.19Zm12.88,0a3,3,0,0,0,2.37-3,2.92,2.92,0,0,0-2.37-2.76ZM10,18.78h1.17a.59.59,0,1,0,0-1.17H8.83a.59.59,0,1,0,0,1.17Z"/></g></g></svg>