<svg xmlns="http://www.w3.org/2000/svg" viewBox="0 0 44.4 48.19"><defs><style>.cls-1{fill:#29abe2;}.cls-2{fill:#fff;}</style></defs><g id="Layer_2" data-name="Layer 2"><g id="Layer_1-2" data-name="Layer 1"><rect class="cls-1" width="44.4" height="48.19" rx="9.05"/><path class="cls-2" d="M24.88,17.79a1.41,1.41,0,0,0,.18-.37,1.6,1.6,0,0,1,.56.22,2.06,2.06,0,0,0,1.13.37,2.33,2.33,0,0,0,.37,0,2,2,0,0,0,1.31-.82,1.16,1.16,0,0,1,.74-.5,1.1,1.1,0,0,1,.86.22,2,2,0,0,0,1.51.32l-.16-.94a1.17,1.17,0,0,1-.87-.21,2,2,0,0,0-2.81.49A1.16,1.16,0,0,1,27,17a1.19,1.19,0,0,1-.42,0A2.06,2.06,0,0,0,28,15.24a1,1,0,0,1,.39-.79,1,1,0,0,1,.85-.25,1.92,1.92,0,0,0,1.47-.48L30.13,13a1.2,1.2,0,0,1-.86.25,2,2,0,0,0-2.19,1.83,1.08,1.08,0,0,1-.39.8,1.1,1.1,0,0,1-.85.25,2.26,2.26,0,0,0-.89.12,1.41,1.41,0,0,0-.56-.55l2.15-4.29a.47.47,0,0,0,0-.47.48.48,0,0,0-.41-.22,1.27,1.27,0,0,1-.9-.38,2.22,2.22,0,0,0-3,0,1.29,1.29,0,0,1-.9.38,1.26,1.26,0,0,1-.9-.38,2.23,2.23,0,0,0-3,0,1.27,1.27,0,0,1-.9.38.48.48,0,0,0-.41.22.47.47,0,0,0,0,.47l2.14,4.29a1.44,1.44,0,0,0-.71.94,1.42,1.42,0,0,0,.23,1.16,10.09,10.09,0,0,0-7.48,9.73v8.64a2.42,2.42,0,0,0,2.4,2.41H30a2.42,2.42,0,0,0,2.4-2.41V27.52A10.1,10.1,0,0,0,24.88,17.79ZM18,11a1.27,1.27,0,0,1,.9-.38,1.26,1.26,0,0,1,.9.38,2.23,2.23,0,0,0,3,0,1.26,1.26,0,0,1,.9-.38,1.29,1.29,0,0,1,.9.38,2.58,2.58,0,0,0,.78.47l-2,4H19.22l-2-4A2.58,2.58,0,0,0,18,11Zm.9,6.57a.84.84,0,0,1-.48-.64.41.41,0,0,1,.48-.43h4.8a.42.42,0,0,1,.49.43.83.83,0,0,1-.49.64Zm11.28,20H12.76a1.45,1.45,0,0,1-1.44-1.45V27.39a9.19,9.19,0,0,1,9.19-9.15h1.94a9.19,9.19,0,0,1,9.2,9.15v8.66A1.45,1.45,0,0,1,30.2,37.5Z"/><path class="cls-2" d="M18.1,31l5.77-5.77.67.68-5.76,5.77Z"/><path class="cls-2" d="M23.24,28.89a1.45,1.45,0,1,0,1.45,1.45A1.45,1.45,0,0,0,23.24,28.89Zm0,1.93a.49.49,0,1,1,.48-.48A.48.48,0,0,1,23.24,30.82Z"/><path class="cls-2" d="M19.4,27.93A1.44,1.44,0,1,0,18,26.49,1.43,1.43,0,0,0,19.4,27.93Zm0-1.92a.48.48,0,0,1,.48.48.47.47,0,0,1-.48.48.48.48,0,0,1-.48-.48A.49.49,0,0,1,19.4,26Z"/><path class="cls-2" d="M21.32,21.69a6.73,6.73,0,1,0,6.73,6.72A6.72,6.72,0,0,0,21.32,21.69Zm0,12.49a5.77,5.77,0,1,1,5.77-5.77A5.76,5.76,0,0,1,21.32,34.18Z"/></g></g></svg>