<svg xmlns="http://www.w3.org/2000/svg" viewBox="0 0 17.04 17.05"><defs><style>.cls-1{fill:#fff;}</style></defs><g id="Layer_2" data-name="Layer 2"><g id="Layer_1-2" data-name="Layer 1"><path class="cls-1" d="M0,17.05a6.5,6.5,0,1,1,13,0H11.35a4.87,4.87,0,1,0-9.74,0ZM6.48,9.74a4.87,4.87,0,1,1,4.87-4.87A4.87,4.87,0,0,1,6.48,9.74Zm0-1.62A3.25,3.25,0,1,0,3.24,4.87,3.25,3.25,0,0,0,6.48,8.12Zm6.73,3A6.49,6.49,0,0,1,17,17.05H15.41a4.86,4.86,0,0,0-2.87-4.45l.67-1.48ZM12.65,2a4.47,4.47,0,0,1-1.3,8.58V8.9a2.85,2.85,0,0,0,2.41-3.22A2.88,2.88,0,0,0,12.2,3.53Z"/></g></g></svg>