<svg xmlns="http://www.w3.org/2000/svg" viewBox="0 0 16.67 21.04"><defs><style>.cls-1{fill:#fff;}</style></defs><g id="Layer_2" data-name="Layer 2"><g id="Layer_1-2" data-name="Layer 1"><path class="cls-1" d="M8.74,0a8.89,8.89,0,0,1,.89.22A4.05,4.05,0,0,1,12.39,4a.92.92,0,0,1,0,.18h1.78a1.5,1.5,0,0,1,1.55,1.47c.12,1.65.26,3.29.39,4.93.12,1.47.23,2.94.35,4.4.06.77.11,1.54.19,2.31A3.43,3.43,0,0,1,13.36,21c-1.49,0-3,0-4.48,0H3.46A3.43,3.43,0,0,1,.1,18.44a4.91,4.91,0,0,1,0-1.71c.11-1.3.21-2.6.31-3.91L.72,8.38c.07-.92.15-1.84.21-2.76A1.5,1.5,0,0,1,2.48,4.15H4.22c.07-.4.1-.78.2-1.15A4.06,4.06,0,0,1,7.74,0a1.16,1.16,0,0,0,.18,0Zm2.42,5.4H5.5V6.87a.62.62,0,0,1-.61.64.61.61,0,0,1-.62-.65c0-.19,0-.38,0-.57V5.38H2.5c-.24,0-.31.07-.33.32L2,7.89,1.6,12.8c-.12,1.5-.23,3-.37,4.52A2.22,2.22,0,0,0,3.46,19.8H13.2a2.21,2.21,0,0,0,2.23-2.46c-.17-2-.32-4-.48-5.93s-.3-3.82-.46-5.73c0-.23-.09-.3-.33-.3H12.52l-.12,0c0,.48,0,.95,0,1.42a1,1,0,0,1-.16.47.54.54,0,0,1-.66.18.59.59,0,0,1-.4-.58C11.16,6.4,11.16,5.9,11.16,5.4Zm0-1.26A2.79,2.79,0,0,0,9.75,1.62a2.69,2.69,0,0,0-3,.1A2.76,2.76,0,0,0,5.5,4.14Z"/><path class="cls-1" d="M7.49,13.2l.73-.74,2-2a.62.62,0,0,1,.92-.05.61.61,0,0,1,0,.91L8,14.46a.61.61,0,0,1-1,0L5.59,13a.62.62,0,1,1,.87-.87Z"/></g></g></svg>