<svg xmlns="http://www.w3.org/2000/svg" viewBox="0 0 23.93 22.45"><defs><style>.cls-1{fill:#fff;}</style></defs><g id="Layer_2" data-name="Layer 2"><g id="Layer_1-2" data-name="Layer 1"><path class="cls-1" d="M19.55,16.47v.74h1.54c.27,0,.45.15.45.37s-.17.37-.45.37H19.55v.27c0,.74,0,1.49,0,2.24,0,.31-.14.49-.4.48s-.39-.17-.39-.49v-1H18v.67a.39.39,0,0,1-.4.44.4.4,0,0,1-.4-.44v-.67h-.8c0,.24,0,.46,0,.68a.4.4,0,1,1-.79,0V14.6h-.72c-.3,0-.48-.14-.48-.37s.18-.37.47-.37h.71V13.1h-.95c-.53,0-.62-.09-.63-.58v-.17H12q-.45,0-.45-.42c0-.35,0-.7,0-1.08H10.49c-.38,0-.52-.12-.52-.47v-2c0-.31.15-.48.41-.48s.39.18.39.5v1.73h.8V9.78a.39.39,0,0,1,.4-.42.38.38,0,0,1,.39.42c0,.56,0,1.12,0,1.68a.82.82,0,0,0,0,.14h1.84c.41,0,.54.12.54.5v.25h1.09c.37,0,.5.13.5.48,0,.95,0,1.9,0,2.87h3.59v-.52c0-.43,0-.86,0-1.29a.4.4,0,1,1,.79,0c0,.74,0,1.47,0,2.2,0,.25-.16.39-.43.39Zm-.81,0H16.37V18.7h2.37Z"/><path class="cls-1" d="M3.18,14.22v-.75H2.11c-.32,0-.5-.13-.51-.36s.18-.38.51-.39h1.4c.34,0,.48.13.48.45v1h.8V12.44c0-.33.14-.46.5-.46h.3c0-.36,0-.69,0-1s.13-.48.51-.48H7.56V9.73H6.43c-.3,0-.5-.21-.43-.45A.38.38,0,0,1,6.39,9H8a.38.38,0,0,1,.42.42v1.06c.33,0,.76-.09.79.4,0,.25-.17.33-.79.37v.66c0,.28-.16.45-.4.45a.39.39,0,0,1-.4-.44v-.67H6.4V12h.38a.38.38,0,0,1,.4.37q0,.38,0,.75a.4.4,0,0,1-.79,0c0-.12,0-.23,0-.36H5.6v1.48H6.73c.29,0,.48.19.45.42S7,15,6.71,15H2.1c-.32,0-.5-.14-.5-.37s.18-.38.5-.38Z"/><path class="cls-1" d="M9.19,17.21v1.5h.3c.34,0,.48.14.48.46s0,.67,0,1l.16.07a.33.33,0,0,1,.23.4A.34.34,0,0,1,10,21c-.54,0-1.09,0-1.64,0A.37.37,0,0,1,8,20.59a.38.38,0,0,1,.39-.38c.26,0,.52,0,.79,0v-.75H8.52c-.33,0-.5-.1-.54-.32s.09-.34.4-.45V17c0-.38.13-.5.53-.5h.66v-.89c0-.53.08-.6.65-.61h.14v-.73H8.78v.88a1.31,1.31,0,0,1,0,.28.37.37,0,0,1-.39.32A.35.35,0,0,1,8,15.39q0-.8,0-1.59c0-.21.18-.32.41-.33h.78V12.11c0-.33.14-.51.4-.51s.39.18.39.5v1.37h.74c.31,0,.46.15.46.44V15h.37c.27,0,.42.15.42.4,0,.48,0,1,0,1.45,0,.26-.16.39-.47.39H9.19Zm2-.75v-.73h-.76v.73Z"/><path class="cls-1" d="M7.18,4.13V6.26c0,.35-.14.48-.51.48H2.11c-.37,0-.51-.13-.51-.48V2c0-.35.13-.48.51-.48H6.67c.37,0,.51.13.51.48ZM2.41,6h4V2.26H2.41Z"/><path class="cls-1" d="M4.4,15.72H6.67c.37,0,.51.13.51.47v4.28c0,.36-.14.49-.51.49H2.11c-.37,0-.51-.13-.51-.48V16.2c0-.35.13-.48.5-.48Zm-2,.76v3.71h4V16.48Z"/><path class="cls-1" d="M16.75,4.12V2c0-.34.14-.47.5-.47h4.59c.36,0,.5.13.5.47v4.3c0,.33-.14.47-.5.47H17.25c-.36,0-.5-.14-.5-.47ZM21.52,6V2.27h-4V6Z"/><path class="cls-1" d="M15.16,6.74h.68c.38,0,.51.13.51.48a2.4,2.4,0,0,1,0,.27H19c.32,0,.5.13.5.37s-.18.37-.49.37H17.57V9.36H18a.39.39,0,0,1,.39.36.39.39,0,0,1-.39.38h-.82a.39.39,0,0,1-.39-.43V8.23h-.64c-.43,0-.55-.11-.55-.51V7.49h-.71c-.34,0-.49-.14-.49-.45v-1a.38.38,0,0,1,.4-.43c.25,0,.39.17.4.44Z"/><path class="cls-1" d="M21.53,10.48V9.73H20.45c-.32,0-.5-.13-.5-.36s.18-.39.51-.39h1.06V8.23h-.68c-.32,0-.5-.14-.5-.38s.19-.36.51-.36h1c.31,0,.46.13.47.42v2.9a.4.4,0,0,1-.45.42H20c-.27,0-.44-.16-.44-.38s.17-.37.44-.37Z"/><path class="cls-1" d="M14,18.72h-.78v1.49c.13,0,.26,0,.38,0a.38.38,0,0,1,.4.37.37.37,0,0,1-.4.37c-.66,0-1.33,0-2,0a.37.37,0,0,1-.4-.37.38.38,0,0,1,.4-.37c.25,0,.51,0,.8,0V19.5c0-.37,0-.75,0-1.12a.37.37,0,0,1,.4-.41h1.59a.37.37,0,0,1,.4.37q0,.38,0,.75a.4.4,0,0,1-.8,0Z"/><path class="cls-1" d="M8.78,4.12H9.5c.32,0,.47.13.47.44s0,.68,0,1.05H11.5c.29,0,.47.15.47.37s-.19.37-.48.37H9.64c-.32,0-.46-.14-.46-.45s0-.68,0-1H8.44c-.31,0-.46-.15-.46-.44v-1A.38.38,0,0,1,8.37,3a.39.39,0,0,1,.41.43v.69Z"/><path class="cls-1" d="M.8.75c0,.63,0,1.23,0,1.83a.5.5,0,0,1-.21.36.49.49,0,0,1-.39,0A.46.46,0,0,1,0,2.59Q0,1.5,0,.4C0,.15.16,0,.43,0H2.77a.39.39,0,0,1,.42.38.38.38,0,0,1-.42.37Z"/><path class="cls-1" d="M23.13.75h-2a.39.39,0,0,1-.4-.37.37.37,0,0,1,.4-.37h2.39a.37.37,0,0,1,.4.37q0,1.13,0,2.25a.37.37,0,0,1-.39.37.37.37,0,0,1-.4-.39c0-.52,0-1,0-1.56Z"/><path class="cls-1" d="M23.14,21.71c0-.65,0-1.25,0-1.86a.38.38,0,0,1,.4-.39.4.4,0,0,1,.39.38V22c0,.33-.14.46-.5.46H21.24c-.32,0-.5-.14-.5-.37s.19-.37.5-.37C21.86,21.7,22.49,21.71,23.14,21.71Z"/><path class="cls-1" d="M.8,21.71c.65,0,1.27,0,1.88,0q.49,0,.51.36c0,.24-.18.38-.51.38-.73,0-1.46,0-2.19,0C.15,22.45,0,22.32,0,22V19.92a.4.4,0,0,1,.41-.46c.25,0,.39.18.39.47Z"/><path class="cls-1" d="M13.56,3V2c0-.34.14-.47.52-.47h1c.28,0,.46.16.45.38s-.18.36-.45.37h-.74v1c0,.41-.12.52-.56.52H12.45c-.3,0-.49-.15-.48-.38s.18-.36.48-.36Z"/><path class="cls-1" d="M4,9h.73c.29,0,.47.16.47.38s-.18.37-.46.37H3.64a.4.4,0,0,1-.45-.42V8.23c-.4,0-.79,0-1.17,0A.53.53,0,0,1,1.65,8a.43.43,0,0,1,0-.36A.54.54,0,0,1,2,7.49H3.54q.45,0,.45.42Z"/><path class="cls-1" d="M7.58,7.47V6.08c0-.29.15-.46.4-.46s.4.17.4.46V7.79c0,.3-.15.44-.47.44H6.06c-.29,0-.47-.14-.47-.37s.18-.37.49-.37h1.5Z"/><path class="cls-1" d="M9.57,2.25H8.45C8.16,2.24,8,2.1,8,1.87s.18-.37.48-.37H9.9c.32,0,.47.14.47.44s0,.67,0,1a.4.4,0,1,1-.79,0c0-.12,0-.23,0-.35Z"/><path class="cls-1" d="M21.14,19.46v1c0,.29-.16.46-.4.45a.4.4,0,0,1-.4-.44V19.15a.4.4,0,0,1,.45-.44h1.1c.27,0,.45.16.44.38s-.17.36-.44.37Z"/><path class="cls-1" d="M15.16,4.49v-1c0-.3.14-.47.39-.47s.4.17.41.46,0,.88,0,1.33-.14.45-.48.45H14.8c-.26,0-.43-.15-.44-.36a.4.4,0,0,1,.44-.39Z"/><path class="cls-1" d="M18,14.22h.74c.27,0,.45.15.45.37S19,15,18.68,15H17.61c-.31,0-.45-.14-.46-.43v-1a.4.4,0,0,1,.41-.41.39.39,0,0,1,.39.4Z"/><path class="cls-1" d="M12.77,13.85H12c-.28,0-.45-.15-.46-.37s.17-.38.46-.38H13.1c.31,0,.46.14.46.43s0,.67,0,1a.39.39,0,0,1-.41.43.39.39,0,0,1-.38-.43C12.76,14.32,12.77,14.1,12.77,13.85Z"/><path class="cls-1" d="M14.55,10.85h-1c-.27,0-.44-.16-.43-.38s.17-.36.43-.36h1.92a.38.38,0,0,1,.43.38c0,.21-.17.36-.43.36Z"/><path class="cls-1" d="M19.54,12.72c0,.14,0,.26,0,.37a.38.38,0,0,1-.39.38.39.39,0,0,1-.4-.36c0-.26,0-.52,0-.77a.37.37,0,0,1,.39-.36h1.22a.37.37,0,1,1,0,.74Z"/><path class="cls-1" d="M2.39,10.85c0,.25,0,.49,0,.73A.37.37,0,0,1,2,12a.38.38,0,0,1-.4-.39c0-.49,0-1,0-1.45a.38.38,0,0,1,.4-.4.38.38,0,0,1,.39.4C2.4,10.37,2.39,10.61,2.39,10.85Z"/><path class="cls-1" d="M22.34,15.7v.73a.4.4,0,0,1-.41.41.39.39,0,0,1-.39-.41V15A.38.38,0,0,1,22,14.6a.39.39,0,0,1,.39.4Z"/><path class="cls-1" d="M17.15,11.6h-.41a.38.38,0,0,1-.38-.38.37.37,0,0,1,.38-.36h.82a.36.36,0,0,1,.38.35A6.62,6.62,0,0,1,18,12a.39.39,0,0,1-.41.37.4.4,0,0,1-.39-.38Z"/><path class="cls-1" d="M13.76,15.72h.58a.39.39,0,0,1,.42.37.38.38,0,0,1-.43.37H13.19a.38.38,0,0,1-.42-.37c0-.21.16-.36.42-.37Z"/><path class="cls-1" d="M13.56,5.45c0,.17,0,.34,0,.51a.39.39,0,0,1-.39.4.38.38,0,0,1-.4-.39q0-.54,0-1.08a.38.38,0,0,1,.39-.4.39.39,0,0,1,.4.42C13.57,5.09,13.56,5.27,13.56,5.45Z"/><path class="cls-1" d="M22.34,12.91c0,.19,0,.38,0,.56a.4.4,0,0,1-.79,0c0-.37,0-.75,0-1.12a.4.4,0,0,1,.79,0C22.34,12.54,22.34,12.72,22.34,12.91Z"/><path class="cls-1" d="M14.38,8.61h.39a.39.39,0,0,1,.39.36.38.38,0,0,1-.39.38H14A.39.39,0,0,1,13.56,9,.4.4,0,0,1,14,8.61Z"/><path class="cls-1" d="M12,1.5c.13,0,.26,0,.4,0a.38.38,0,0,1,.37.37.37.37,0,0,1-.37.37h-.84a.38.38,0,0,1-.38-.36.39.39,0,0,1,.39-.38c.14,0,.29,0,.43,0Z"/><path class="cls-1" d="M4,11.23h-.4a.37.37,0,0,1-.38-.37.37.37,0,0,1,.38-.37H4.4a.39.39,0,0,1,.39.38.38.38,0,0,1-.38.36Z"/><path class="cls-1" d="M12.76,7.86h-.4A.4.4,0,0,1,12,7.48a.37.37,0,0,1,.38-.36,5.89,5.89,0,0,1,.84,0,.38.38,0,0,1,.37.37.39.39,0,0,1-.38.37Z"/><path class="cls-1" d="M11.57,18.73c0,.12,0,.25,0,.37a.39.39,0,0,1-.78,0,5,5,0,0,1,0-.77.38.38,0,0,1,.38-.36.4.4,0,0,1,.41.37Z"/><path class="cls-1" d="M11.36,4.86h-.23a.37.37,0,0,1,0-.74h.4c.26,0,.43.15.44.36a.4.4,0,0,1-.44.39h-.17Z"/><path class="cls-1" d="M18,17.59a.39.39,0,0,1-.4.37.4.4,0,0,1-.4-.37.39.39,0,0,1,.4-.37A.38.38,0,0,1,18,17.59Z"/><path class="cls-1" d="M4.4,3h.75c.28,0,.43.14.43.4,0,.48,0,.95,0,1.43a.38.38,0,0,1-.43.41H3.63a.38.38,0,0,1-.43-.41c0-.47,0-1,0-1.42A.38.38,0,0,1,3.63,3Zm.38,1.48V3.76H4v.72Z"/><path class="cls-1" d="M5.59,18.35c0,.23,0,.47,0,.7a.38.38,0,0,1-.43.41H3.63c-.28,0-.43-.15-.43-.41,0-.48,0-.95,0-1.43,0-.26.15-.4.43-.4H5.15a.38.38,0,0,1,.43.41C5.59,17.87,5.59,18.11,5.59,18.35ZM4,18v.73h.77V18Z"/><path class="cls-1" d="M20.74,4.14c0,.22,0,.45,0,.68a.39.39,0,0,1-.44.42H18.8q-.45,0-.45-.42V3.42c0-.28.15-.42.44-.42h1.5c.3,0,.44.14.45.41S20.74,3.9,20.74,4.14Zm-1.57-.39v.73h.76V3.75Z"/></g></g></svg>