<svg xmlns="http://www.w3.org/2000/svg" viewBox="0 0 44.4 48.19"><defs><style>.cls-1{fill:#fbb03b;}.cls-2{fill:#fff;}</style></defs><g id="Layer_2" data-name="Layer 2"><g id="Layer_1-2" data-name="Layer 1"><rect class="cls-1" width="44.4" height="48.19" rx="9.05"/><path class="cls-2" d="M24.59,20.55a.24.24,0,0,0-.18-.07H23.05a2.69,2.69,0,0,0-.51-1.15h1.85a.24.24,0,0,0,.26-.26v-.81a.27.27,0,0,0-.07-.18.26.26,0,0,0-.19-.08H17.76a.25.25,0,0,0-.18.08.23.23,0,0,0-.07.18v1.06a.24.24,0,0,0,.25.25h1.16q1.68,0,2.13.9H17.76a.25.25,0,0,0-.18.08.23.23,0,0,0-.07.18v.81a.25.25,0,0,0,.07.19.29.29,0,0,0,.18.07h3.4a1.5,1.5,0,0,1-.81,1,3.58,3.58,0,0,1-1.7.35h-.89a.24.24,0,0,0-.25.25v1a.24.24,0,0,0,.07.18q1.53,1.62,4,4.55a.25.25,0,0,0,.2.1H23.3a.26.26,0,0,0,.2-.42c-1.55-1.9-2.77-3.33-3.66-4.27a4,4,0,0,0,2.2-.88,3,3,0,0,0,1-1.86h1.34a.29.29,0,0,0,.18-.07.25.25,0,0,0,.07-.19v-.81A.23.23,0,0,0,24.59,20.55Z"/><path class="cls-2" d="M28.07,9.64h-14a2.49,2.49,0,0,0-2.5,2.49v25a2.5,2.5,0,0,0,2.5,2.5h14a2.5,2.5,0,0,0,2.5-2.5v-25A2.49,2.49,0,0,0,28.07,9.64Zm-14,1h14a1.5,1.5,0,0,1,1.5,1.5v.5h-17v-.5A1.5,1.5,0,0,1,14.1,10.63Zm15.47,3v20h-17v-20Zm-1.5,25h-14a1.5,1.5,0,0,1-1.5-1.5V34.6h17v2.49A1.5,1.5,0,0,1,28.07,38.59Z"/><path class="cls-2" d="M21.09,35.1a1.5,1.5,0,1,0,1.49,1.5A1.5,1.5,0,0,0,21.09,35.1Zm0,2a.5.5,0,1,1,.49-.49A.49.49,0,0,1,21.09,37.09Z"/></g></g></svg>