<svg xmlns="http://www.w3.org/2000/svg" viewBox="0 0 44.4 48.19"><defs><style>.cls-1{fill:#ed1e79;}.cls-2{fill:#fff;}</style></defs><g id="Layer_2" data-name="Layer 2"><g id="Layer_1-2" data-name="Layer 1"><rect class="cls-1" width="44.4" height="48.19" rx="9.05"/><path class="cls-2" d="M13,38.05a3.24,3.24,0,0,1-1.59-.79,2.76,2.76,0,0,1-.89-1.95c0-.09,0-.19,0-.29q0-10.74,0-21.47a2.89,2.89,0,0,1,2.94-3H30.54a2.86,2.86,0,0,1,2.9,2.4,4.22,4.22,0,0,1,0,.62q0,10.72,0,21.47a2.84,2.84,0,0,1-2.41,3,.1.1,0,0,0-.07,0ZM11.69,24.26V35a1.73,1.73,0,0,0,1.88,1.89H30.45A1.74,1.74,0,0,0,32.33,35V13.56a1.73,1.73,0,0,0-1.88-1.89H13.57a1.73,1.73,0,0,0-1.88,1.89Z"/><path class="cls-2" d="M14,25.42a5.73,5.73,0,1,1,5.7,5.75A5.74,5.74,0,0,1,14,25.42ZM16.92,29a4.57,4.57,0,0,0,7.15-5c-.55-1.68-2.36-3.16-3.78-3.08v.29c0,1.27,0,2.54,0,3.81a1.38,1.38,0,0,1-.46,1.11C18.85,27.08,17.89,28.06,16.92,29Zm2.21-8.12a4.51,4.51,0,0,0-3,7.29c1-1,1.95-1.95,2.92-2.93a.4.4,0,0,0,.1-.28q0-1.93,0-3.87A1.48,1.48,0,0,0,19.13,20.92Z"/><path class="cls-2" d="M22,33.46h7.31c.44,0,.68.18.7.53a.56.56,0,0,1-.5.6H14.67c-.44,0-.7-.23-.68-.61a.54.54,0,0,1,.48-.52,1.71,1.71,0,0,1,.32,0Z"/><path class="cls-2" d="M28.33,20.85H27.22a.57.57,0,0,1-.62-.56.56.56,0,0,1,.61-.57c.74,0,1.48,0,2.23,0a.54.54,0,0,1,.59.55.57.57,0,0,1-.6.58h-1.1Z"/><path class="cls-2" d="M28.32,24.29h-1.1a.57.57,0,1,1,0-1.13h2.21a.54.54,0,0,1,.61.56.58.58,0,0,1-.61.58h-1.1Z"/><path class="cls-2" d="M28.31,27.73H27.23a.58.58,0,0,1-.63-.59.56.56,0,0,1,.62-.55c.73,0,1.46,0,2.18,0a.55.55,0,0,1,.63.57.59.59,0,0,1-.65.57Z"/><path class="cls-2" d="M28.34,30c.36,0,.73,0,1.1,0a.54.54,0,0,1,.59.56.56.56,0,0,1-.6.57c-.75,0-1.49,0-2.24,0a.57.57,0,1,1,0-1.13c.39,0,.77,0,1.16,0Z"/></g></g></svg>