<svg xmlns="http://www.w3.org/2000/svg" viewBox="0 0 17.7 21.24"><defs><style>.cls-1{fill:#fff;}</style></defs><g id="Layer_2" data-name="Layer 2"><g id="Layer_1-2" data-name="Layer 1"><path class="cls-1" d="M1.92,21.24a2.55,2.55,0,0,1-1.22-.6A2.14,2.14,0,0,1,0,19.13a1.69,1.69,0,0,1,0-.23V2.33a2.21,2.21,0,0,1,1.1-2A2.16,2.16,0,0,1,2.27,0H15.44a2.2,2.2,0,0,1,2.23,1.86,2.48,2.48,0,0,1,0,.47V18.9a2.19,2.19,0,0,1-1.87,2.31s0,0-.05,0ZM.88,10.6v8.3a1.35,1.35,0,0,0,1.46,1.46h13a1.35,1.35,0,0,0,1.46-1.46V2.35A1.35,1.35,0,0,0,15.36.88h-13A1.35,1.35,0,0,0,.88,2.35Z"/><path class="cls-1" d="M2.66,11.5a4.43,4.43,0,1,1,4.4,4.43A4.44,4.44,0,0,1,2.66,11.5Zm2.26,2.79A3.52,3.52,0,1,0,7.52,8v.23c0,1,0,2,0,2.94a1.07,1.07,0,0,1-.35.86C6.41,12.78,5.68,13.54,4.92,14.29ZM6.63,8a3.45,3.45,0,0,0-2.84,2.19,3.41,3.41,0,0,0,.52,3.44l2.25-2.26a.33.33,0,0,0,.08-.22v-3C6.64,8.13,6.63,8.08,6.63,8Z"/><path class="cls-1" d="M8.86,17.7H14.5c.34,0,.53.14.54.41a.44.44,0,0,1-.38.46H3.19c-.34,0-.54-.18-.53-.47A.43.43,0,0,1,3,17.71a2.09,2.09,0,0,1,.25,0Z"/><path class="cls-1" d="M13.73,8h-.85a.45.45,0,0,1-.49-.43.44.44,0,0,1,.47-.44h1.72a.42.42,0,0,1,.46.43.44.44,0,0,1-.46.45h-.85Z"/><path class="cls-1" d="M13.72,10.62h-.85a.44.44,0,1,1,0-.88h1.7a.43.43,0,0,1,.47.44.44.44,0,0,1-.47.44h-.85Z"/><path class="cls-1" d="M13.71,13.28h-.83a.46.46,0,0,1-.49-.45.45.45,0,0,1,.49-.43h1.68a.43.43,0,0,1,.48.44c0,.26-.19.43-.5.44Z"/><path class="cls-1" d="M13.73,15.05h.85a.43.43,0,0,1,.46.43.44.44,0,0,1-.47.45H12.85a.44.44,0,1,1,0-.88Z"/></g></g></svg>