<svg xmlns="http://www.w3.org/2000/svg" viewBox="0 0 44.4 48.19"><defs><style>.cls-1{fill:#c1272d;}.cls-2{fill:#fff;}.cls-3,.cls-4,.cls-5{fill:none;stroke:#fff;}.cls-3,.cls-5{stroke-miterlimit:10;}.cls-3{stroke-width:0.75px;}.cls-4,.cls-5{stroke-linecap:round;}.cls-4{stroke-linejoin:round;}</style></defs><g id="Layer_2" data-name="Layer 2"><g id="Layer_1-2" data-name="Layer 1"><rect class="cls-1" width="44.4" height="48.19" rx="9.05"/><path class="cls-2" d="M16.27,21.41a.25.25,0,0,0-.19-.07H14.64a2.73,2.73,0,0,0-.54-1.21h2a.27.27,0,0,0,.27-.27V19a.27.27,0,0,0-.27-.27h-7a.28.28,0,0,0-.2.08A.25.25,0,0,0,8.8,19v1.12a.24.24,0,0,0,.08.19.26.26,0,0,0,.19.08h1.22c1.18,0,1.93.32,2.25.95H9.07a.24.24,0,0,0-.27.27v.86a.26.26,0,0,0,.07.19.27.27,0,0,0,.2.07h3.59a1.64,1.64,0,0,1-.87,1.05,3.65,3.65,0,0,1-1.78.37H9.07a.27.27,0,0,0-.27.27v1.06a.25.25,0,0,0,.07.19q1.62,1.71,4.19,4.8a.27.27,0,0,0,.21.1h1.64a.23.23,0,0,0,.24-.15.23.23,0,0,0,0-.29c-1.64-2-2.92-3.51-3.86-4.5a4.28,4.28,0,0,0,2.32-.93,3.11,3.11,0,0,0,1.09-2h1.41a.25.25,0,0,0,.19-.07.27.27,0,0,0,.08-.19v-.86A.28.28,0,0,0,16.27,21.41Z"/><circle class="cls-3" cx="32.36" cy="21.55" r="1.87"/><path class="cls-3" d="M32.19,29.38l-.54,0a3.31,3.31,0,0,1-1.07-.23l-.3-.11a3,3,0,0,1-.37-.17l-.14-.08a.62.62,0,0,1-.33-.55V26.45A2.49,2.49,0,0,1,31.93,24h.8a2.62,2.62,0,0,1,2.62,2.62v1.66a.46.46,0,0,1-.22.39h0a4.86,4.86,0,0,1-1.45.61,5.32,5.32,0,0,1-1.49.14Z"/><polyline class="cls-4" points="21.03 21.73 18.03 24.73 21.16 27.86"/><line class="cls-5" x1="27.03" y1="24.79" x2="18.53" y2="24.79"/></g></g></svg>