<svg xmlns="http://www.w3.org/2000/svg" viewBox="0 0 16 18.95"><defs><style>.cls-1{fill:#fff;}</style></defs><g id="Layer_2" data-name="Layer 2"><g id="Layer_1-2" data-name="Layer 1"><path class="cls-1" d="M8.15,0l7.21,3c.51.21.64.39.64.93,0,1.14,0,2.27,0,3.41a12.29,12.29,0,0,1-4.18,9.35,11.75,11.75,0,0,1-3.49,2.19.76.76,0,0,1-.66,0,12.32,12.32,0,0,1-7.36-8.7A11.65,11.65,0,0,1,0,7.41V3.84A.76.76,0,0,1,.53,3l7.13-3L7.85,0ZM1.48,6.6a12.19,12.19,0,0,0,.23,3,10.85,10.85,0,0,0,6.17,7.73.33.33,0,0,0,.24,0,10.92,10.92,0,0,0,6.39-9.77c0-1.06,0-2.12,0-3.18a.22.22,0,0,0-.16-.23L8.15,1.61a.39.39,0,0,0-.28,0L1.62,4.19c-.11,0-.14.1-.14.22Z"/><path class="cls-1" d="M7.18,9.9l.15-.14,3-3a.75.75,0,0,1,.79-.23.73.73,0,0,1,.37,1.15,1.29,1.29,0,0,1-.16.18L7.79,11.4a.76.76,0,0,1-1.22,0l-2-2A.74.74,0,0,1,5,8.16a.75.75,0,0,1,.7.25l1.4,1.4Z"/></g></g></svg>