<svg xmlns="http://www.w3.org/2000/svg" viewBox="0 0 21.5 27.03"><defs><style>.cls-1{fill:#fff;}</style></defs><g id="Layer_2" data-name="Layer 2"><g id="Layer_1-2" data-name="Layer 1"><path class="cls-1" d="M11.12,0c.37.3.75.58,1.1.9a.88.88,0,0,1,.22.44,5,5,0,0,1,0,.77.38.38,0,0,1-.39.43.37.37,0,0,1-.39-.43A1,1,0,0,0,11,.93l-.74.59a.43.43,0,0,1-.62,0L9,1A.18.18,0,0,0,8.7,1l-.63.52a.43.43,0,0,1-.58,0L6.71.91,6,1.49a.44.44,0,0,1-.68,0c-.2-.16-.39-.34-.6-.48s-.17,0-.26,0l0,0A1,1,0,0,0,3.88,2.1c0,1.71,0,3.42,0,5.12v.31h7.76V4.14a.92.92,0,0,1,0-.29.37.37,0,0,1,.4-.3.36.36,0,0,1,.36.36c0,.19,0,.39,0,.61.17,0,.31,0,.45,0a2.16,2.16,0,0,1,2.29,2.06c.1.94.18,1.89.28,2.83,0,.08,0,.16,0,.27h4.09A1.79,1.79,0,0,1,21.43,11a1.47,1.47,0,0,1,.06.42q0,1.28,0,2.55c0,.29-.16.46-.4.46s-.38-.18-.38-.47c0-.78,0-1.57,0-2.35a1,1,0,0,0-1.16-1.17h-4a51.8,51.8,0,0,1-.49,9h4.52A1,1,0,0,0,20.7,18.3c0-.8,0-1.6,0-2.4,0-.2.08-.37.27-.4a.66.66,0,0,1,.41.1.42.42,0,0,1,.11.3c0,.87,0,1.73,0,2.59a1.77,1.77,0,0,1-1.86,1.75c-1.45,0-2.91,0-4.36,0h-.35c-.07.45-.13.89-.21,1.33-.23,1.2-.43,2.4-.7,3.59a3.64,3.64,0,0,1-.57,1.17A1.67,1.67,0,0,1,12,27q-4.24,0-8.47,0a1.92,1.92,0,0,1-1.72-1.08A6.33,6.33,0,0,1,1.3,24c-.45-2.25-.81-4.51-1-6.8A45.36,45.36,0,0,1,.13,9C.2,8.13.27,7.26.41,6.4A2.09,2.09,0,0,1,2,4.57a3.28,3.28,0,0,1,.63-.05H3.1V3.2c0-.59,0-1.18,0-1.77A.64.64,0,0,1,3.38.85c.35-.27.69-.57,1-.85h.32l.91.75L6.58,0h.26l1,.75L8.69,0H9l.9.75L10.85,0Zm-8,5.31c-.21,0-.41,0-.61,0a1.14,1.14,0,0,0-1.06.62,2.07,2.07,0,0,0-.26.77,44.43,44.43,0,0,0-.11,10.5c.23,2.29.6,4.56,1.05,6.82a10.86,10.86,0,0,0,.31,1.28,1.24,1.24,0,0,0,1.36.93H11.9A1.16,1.16,0,0,0,13,25.6a2.58,2.58,0,0,0,.28-.76,68.66,68.66,0,0,0,1.28-8.33,43.91,43.91,0,0,0-.16-9.79,1.45,1.45,0,0,0-1.93-1.37V7.56a2.55,2.55,0,0,1,.62,0,.6.6,0,0,1,.35.29.46.46,0,0,1-.12.39.71.71,0,0,1-.39.1H2.58c-.32,0-.49-.14-.49-.38s.17-.41.5-.42h.5Z"/><path class="cls-1" d="M18,14.68H17c-.34,0-.47-.13-.48-.46V12a.38.38,0,0,1,.44-.43h2.22c.29,0,.43.14.43.44q0,1.1,0,2.19c0,.31-.14.45-.45.45Zm-.72-.8h1.47V12.4H17.3Z"/><path class="cls-1" d="M7.79,5.34H5c-.36,0-.59-.3-.41-.56a.5.5,0,0,1,.38-.22c1.9,0,3.81,0,5.71,0a.39.39,0,0,1,.44.39c0,.24-.17.4-.46.4Z"/><path class="cls-1" d="M6.34,3H7.68c.31,0,.49.15.49.4S8,3.8,7.68,3.8H5c-.31,0-.49-.15-.49-.4S4.67,3,5,3Z"/><path class="cls-1" d="M17.65,17.05c0-.43,0-.86,0-1.29s.14-.47.37-.48.41.17.41.48c0,.87,0,1.75,0,2.63,0,.3-.15.46-.39.46s-.39-.15-.39-.45S17.65,17.5,17.65,17.05Z"/><path class="cls-1" d="M11.65,10.15H3.91v4.72h7.74V13.63a1.37,1.37,0,0,1,0-.29.37.37,0,0,1,.42-.31.35.35,0,0,1,.35.36q0,1,0,1.92a.36.36,0,0,1-.35.36H3.7c-.48,0-.6-.11-.6-.59V9.92c0-.45.12-.57.58-.57h8.18c.48,0,.58.11.58.59s0,1.06,0,1.59c0,.31-.14.48-.39.48s-.39-.18-.4-.49Z"/><path class="cls-1" d="M4.32,22c.25,0,.51,0,.76,0a.4.4,0,0,1,.43.4.41.41,0,0,1-.44.39H3.55a.41.41,0,0,1-.45-.39c0-.23.18-.39.46-.4h.76Z"/><path class="cls-1" d="M4.28,20.75H3.54a.42.42,0,0,1-.44-.39.41.41,0,0,1,.42-.4C4,20,4.57,20,5.1,20a.4.4,0,0,1,.41.39.41.41,0,0,1-.44.4Z"/><path class="cls-1" d="M4.29,18.75H3.52a.39.39,0,0,1-.42-.38.41.41,0,0,1,.39-.4c.54,0,1.09,0,1.63,0a.4.4,0,0,1,.39.42.38.38,0,0,1-.41.36Z"/><path class="cls-1" d="M11.24,18.75h-.79a.39.39,0,0,1,0-.77c.56,0,1.12,0,1.69,0a.37.37,0,0,1,.34.42.35.35,0,0,1-.38.35Z"/><path class="cls-1" d="M11.24,20.75h-.79a.37.37,0,0,1-.4-.36.38.38,0,0,1,.38-.42c.55,0,1.09,0,1.64,0a.39.39,0,0,1,0,.78Z"/><path class="cls-1" d="M7.76,18.75H7a.38.38,0,0,1-.41-.36A.38.38,0,0,1,7,18c.56,0,1.11,0,1.66,0a.39.39,0,0,1,0,.77Z"/><path class="cls-1" d="M7.79,20.75H7a.4.4,0,0,1-.42-.38A.39.39,0,0,1,7,20c.52,0,1,0,1.55,0a.39.39,0,0,1,.42.41c0,.23-.16.37-.44.38Z"/><path class="cls-1" d="M7.77,22.75H7a.4.4,0,0,1-.42-.41A.38.38,0,0,1,7,22c.51,0,1,0,1.55,0a.4.4,0,1,1,0,.79Z"/><path class="cls-1" d="M11.25,22.75h-.77a.39.39,0,0,1-.43-.4.38.38,0,0,1,.43-.39q.77,0,1.53,0a.38.38,0,0,1,.43.39.39.39,0,0,1-.43.4Z"/></g></g></svg>