<svg xmlns="http://www.w3.org/2000/svg" viewBox="0 0 18.03 18.6"><defs><style>.cls-1{fill:#fff;}</style></defs><g id="Layer_2" data-name="Layer 2"><g id="Layer_1-2" data-name="Layer 1"><path class="cls-1" d="M7.27,18.6l-.34-.11A1.46,1.46,0,0,1,6,17.31l-.15-.89a1.08,1.08,0,0,0-1.46-.86l-.9.33a1.43,1.43,0,0,1-1.82-.65c-.5-.86-1-1.72-1.49-2.58a1.45,1.45,0,0,1,.34-1.91c.25-.2.49-.39.73-.6a1.08,1.08,0,0,0,0-1.7L.53,7.82A1.44,1.44,0,0,1,.2,6c.5-.88,1-1.75,1.52-2.63a1.45,1.45,0,0,1,1.8-.64L4.4,3a1.08,1.08,0,0,0,1.49-.87c.06-.33.11-.67.18-1A1.42,1.42,0,0,1,7.46,0h3.11A1.44,1.44,0,0,1,12,1.29l.15.89a1.08,1.08,0,0,0,1.45.87l.9-.34a1.45,1.45,0,0,1,1.83.65L17.82,6a1.44,1.44,0,0,1-.34,1.88l-.74.62a1.07,1.07,0,0,0,0,1.7l.75.63a1.44,1.44,0,0,1,.34,1.85Q17.08,14,16.3,15.27a1.43,1.43,0,0,1-1.77.63l-.9-.33a1.09,1.09,0,0,0-1.5.87c-.05.31-.09.62-.15.93a1.43,1.43,0,0,1-1.16,1.2s0,0-.06,0Zm9.3-6.7-.7-.57a2.54,2.54,0,0,1,0-4l.7-.58c-.49-.86-1-1.7-1.47-2.54,0-.08-.08-.1-.17-.06L14,4.45A2.54,2.54,0,0,1,10.72,2.5l-.18-1h-3l-.15.87A2.53,2.53,0,0,1,4.25,4.5a10.17,10.17,0,0,1-1.13-.4c-.1,0-.16,0-.21.08s-.18.31-.27.47L1.46,6.7l.73.6a2.55,2.55,0,0,1,0,4l-.73.6L3,14.54l1-.35a2.39,2.39,0,0,1,1.35-.11,2.54,2.54,0,0,1,2.05,2.2q.07.42.15.87h3c.05-.31.1-.6.15-.88a2.54,2.54,0,0,1,3.1-2.17,11.5,11.5,0,0,1,1.12.4c.09,0,.14,0,.19-.05Z"/><path class="cls-1" d="M9.11,12.88A3.58,3.58,0,1,1,12.6,9.21,3.58,3.58,0,0,1,9.11,12.88ZM9,7.17a2.13,2.13,0,1,0,2.11,2.16A2.15,2.15,0,0,0,9,7.17Z"/></g></g></svg>