<svg xmlns="http://www.w3.org/2000/svg" viewBox="0 0 15.14 16.36"><defs><style>.cls-1{fill:#fff;}</style></defs><g id="Layer_2" data-name="Layer 2"><g id="Layer_1-2" data-name="Layer 1"><path class="cls-1" d="M12.06,10.19A3.09,3.09,0,0,0,9.68,11.3L6,9.21A3.21,3.21,0,0,0,6,7.15L9.68,5.06a3.09,3.09,0,1,0-.71-2,3,3,0,0,0,.18,1L5.46,6.21a3.09,3.09,0,1,0,0,3.94l3.69,2.09a3,3,0,0,0-.18,1,3.09,3.09,0,1,0,3.09-3.08Zm0-9.11a2,2,0,1,1-2,2A2,2,0,0,1,12.06,1.08Zm-9,9.11a2,2,0,1,1,2-2A2,2,0,0,1,3.09,10.19Zm9,5.09a2,2,0,1,1,2-2A2,2,0,0,1,12.06,15.28Z"/></g></g></svg>