<svg xmlns="http://www.w3.org/2000/svg" viewBox="0 0 44.4 48.19"><defs><style>.cls-1{fill:#009245;}.cls-2{fill:#fff;}</style></defs><g id="Layer_2" data-name="Layer 2"><g id="Layer_1-2" data-name="Layer 1"><rect class="cls-1" width="44.4" height="48.19" rx="9.05"/><path class="cls-2" d="M35.54,15.84H23.63V12.93a.43.43,0,0,0-.44-.44H20.47V10.9A1.9,1.9,0,0,0,18.57,9h-.68A1.9,1.9,0,0,0,16,10.9v1.59H13.09a.44.44,0,0,0-.44.44v2.91h-4A1.63,1.63,0,0,0,7,17.47v2.06a.45.45,0,0,0,.89,0V17.47a.75.75,0,0,1,.75-.75h4v6.06l-.52,2.8a.45.45,0,0,0,.44.52H29l-.2.75a1.67,1.67,0,0,0-1.14-.44A1.71,1.71,0,0,0,26,27.67h-3a1.71,1.71,0,0,0-3.3,0h-.52a.45.45,0,0,0,0,.89h.52a1.71,1.71,0,0,0,3.3,0h3a1.71,1.71,0,0,0,3.35-.38l2.37-8.95h1.83a.45.45,0,0,0,0-.89H31.41a.46.46,0,0,0-.43.33l-.27,1.06H23.63v-3H35.54a.76.76,0,0,1,.75.75v13.4H34.17a.45.45,0,0,0,0,.89h2.12v2.06a.75.75,0,0,1-.75.75H8.63a.74.74,0,0,1-.75-.75V31.76h24a.45.45,0,0,0,0-.89h-24v-9.1a.45.45,0,0,0-.89,0V33.82a1.64,1.64,0,0,0,1.64,1.64H18.91v2.85H16.36a.44.44,0,0,0,0,.88H27.8a.44.44,0,0,0,0-.88H25.25V35.46H35.54a1.64,1.64,0,0,0,1.63-1.64V17.47A1.63,1.63,0,0,0,35.54,15.84ZM22.23,28.13a.83.83,0,1,1-.82-.84.82.82,0,0,1,.82.84v0Zm5.45.81a.83.83,0,1,1,.82-.82A.83.83,0,0,1,27.68,28.94Zm-10.79-18a1,1,0,0,1,1-1h.68a1,1,0,0,1,1,1v1.59H16.89ZM13.1,25.21l.36-1.95H16a.45.45,0,0,0,0-.89H13.54v-9H16V14a.45.45,0,0,0,.89,0v-.61h2.69V14a.45.45,0,0,0,.89,0v-.61h2.28v6.36H18.27a.44.44,0,0,0-.41.59l1.72,4.89Zm17.37-4.6-1.22,4.6H20.51l-1.61-4.6Zm-6.1,17.7H19.79V35.46h4.58Z"/></g></g></svg>