<svg xmlns="http://www.w3.org/2000/svg" viewBox="0 0 44.4 48.19"><defs><style>.cls-1{fill:#93278f;}.cls-2{fill:#fff;}.cls-3{fill:none;stroke:#fff;stroke-linecap:square;stroke-linejoin:round;}</style></defs><g id="Layer_2" data-name="Layer 2"><g id="Layer_1-2" data-name="Layer 1"><rect class="cls-1" width="44.4" height="48.19" rx="9.05"/><path class="cls-2" d="M20.37,19.57a.39.39,0,0,0-.28-.11h-2a4.16,4.16,0,0,0-.77-1.72h2.79a.38.38,0,0,0,.38-.38V16.14a.38.38,0,0,0-.11-.28.37.37,0,0,0-.27-.11h-10a.37.37,0,0,0-.27.11.38.38,0,0,0-.11.28v1.59a.37.37,0,0,0,.12.27.36.36,0,0,0,.26.11h1.74q2.52,0,3.21,1.35h-5a.38.38,0,0,0-.38.38v1.22a.38.38,0,0,0,.11.28.37.37,0,0,0,.27.11h5.11A2.31,2.31,0,0,1,14,22.94a5.35,5.35,0,0,1-2.55.52H10.11a.33.33,0,0,0-.26.11.37.37,0,0,0-.12.27v1.52a.36.36,0,0,0,.11.26q2.29,2.44,6,6.83a.34.34,0,0,0,.3.15h2.33a.36.36,0,0,0,.35-.22.34.34,0,0,0-.05-.41q-3.5-4.27-5.49-6.41a6.15,6.15,0,0,0,3.3-1.31,4.48,4.48,0,0,0,1.54-2.8h2a.39.39,0,0,0,.28-.11.37.37,0,0,0,.1-.28V19.84A.36.36,0,0,0,20.37,19.57Z"/><polygon class="cls-2" points="23.11 15.75 23.11 32.6 33.16 24.08 23.11 15.75"/><polyline class="cls-3" points="25.25 15.23 35.28 24.1 25.58 32.6"/></g></g></svg>