<svg xmlns="http://www.w3.org/2000/svg" viewBox="0 0 40.91 40.91"><defs><style>.cls-1{fill:#fff;stroke:#1b1464;stroke-miterlimit:10;stroke-width:2px;}.cls-2{fill:#1d1d63;}</style></defs><g id="Layer_2" data-name="Layer 2"><g id="Layer_1-2" data-name="Layer 1"><circle class="cls-1" cx="20.46" cy="20.46" r="19.46"/><circle class="cls-2" cx="20.46" cy="13.64" r="6.18"/><path class="cls-2" d="M19.91,39.57l-1.78-.1a11.9,11.9,0,0,1-3.55-.75l-1-.38a11.33,11.33,0,0,1-1.23-.56l-.47-.26a2.06,2.06,0,0,1-1.1-1.83V29.86a8.25,8.25,0,0,1,8.26-8.25h2.63a8.67,8.67,0,0,1,8.67,8.67v5.5a1.54,1.54,0,0,1-.71,1.29h0a16.31,16.31,0,0,1-4.81,2c-.66.15-1.36.28-2.07.38A16,16,0,0,1,19.91,39.57Z"/></g></g></svg>