<svg xmlns="http://www.w3.org/2000/svg" viewBox="0 0 134 134"><defs><style>.cls-1{fill:#fff;stroke:#1b1464;stroke-miterlimit:10;stroke-width:4px;}.cls-2{fill:#1d1d63;}</style></defs><g id="Layer_2" data-name="Layer 2"><g id="Layer_1-2" data-name="Layer 1"><circle class="cls-1" cx="67" cy="67" r="65"/><circle class="cls-2" cx="67" cy="44.22" r="20.64"/><path class="cls-2" d="M65.17,130.84l-6-.34A39.26,39.26,0,0,1,47.35,128c-1.09-.41-2.14-.84-3.27-1.27A34.14,34.14,0,0,1,40,124.87L38.4,124a7,7,0,0,1-3.66-6.12V98.42A27.57,27.57,0,0,1,62.32,70.85h8.8a29,29,0,0,1,29,29v18.38a5.06,5.06,0,0,1-2.39,4.3h0a53.81,53.81,0,0,1-16.07,6.77,69,69,0,0,1-6.89,1.28A51,51,0,0,1,65.17,130.84Z"/></g></g></svg>