<svg xmlns="http://www.w3.org/2000/svg" viewBox="0 0 44.4 48.19"><defs><style>.cls-1{fill:#f15a24;}.cls-2{fill:#fff;}</style></defs><g id="Layer_2" data-name="Layer 2"><g id="Layer_1-2" data-name="Layer 1"><rect class="cls-1" width="44.4" height="48.19" rx="9.05"/><circle class="cls-2" cx="28.36" cy="27.09" r="0.75"/><path class="cls-2" d="M33.58,23.49V19.63a.74.74,0,0,0-.75-.74h-.6l-2-5.52a.75.75,0,0,0-1-.45l-8.24,3H11.87a2.24,2.24,0,0,0-2.24,2.23V33.05a2.24,2.24,0,0,0,2.24,2.23h21a.74.74,0,0,0,.75-.74V30.68a2.22,2.22,0,0,0,1.49-2.1v-3a2.23,2.23,0,0,0-1.49-2.11Zm-7.23-7.92A3.64,3.64,0,0,0,28,17a3.73,3.73,0,0,0,2.12.31l.58,1.58H17.17Zm3.2.29a2.2,2.2,0,0,1-1-.21A2.12,2.12,0,0,1,27.8,15l1.28-.46ZM11.87,17.4h5l-4.12,1.49h-.92a.76.76,0,0,1-.75-.75.75.75,0,0,1,.75-.74Zm0,16.39a.75.75,0,0,1-.75-.74V20.25a2.36,2.36,0,0,0,.75.13H32.09v3H28.36a3.73,3.73,0,0,0,0,7.45h3.73v3Zm21.71-5.21a.74.74,0,0,1-.75.74H28.36a2.24,2.24,0,0,1,0-4.47h4.47a.74.74,0,0,1,.75.75Z"/><path class="cls-2" d="M19,24.67a.16.16,0,0,0-.14-.05h-1a2.14,2.14,0,0,0-.39-.88h1.42a.21.21,0,0,0,.2-.2v-.62a.21.21,0,0,0-.2-.2H13.73a.19.19,0,0,0-.19.2v.81a.24.24,0,0,0,.05.14.2.2,0,0,0,.14.06h.89c.86,0,1.4.23,1.63.69H13.73a.19.19,0,0,0-.14.05.22.22,0,0,0-.05.14v.62a.19.19,0,0,0,.19.2h2.61a1.19,1.19,0,0,1-.63.76,2.67,2.67,0,0,1-1.29.26h-.69a.2.2,0,0,0-.14.06.24.24,0,0,0-.05.14v.78a.21.21,0,0,0,.05.13c.78.83,1.8,2,3,3.49a.18.18,0,0,0,.15.07H18a.18.18,0,0,0,.17-.11.17.17,0,0,0,0-.21q-1.78-2.19-2.8-3.27A3.12,3.12,0,0,0,17,27.06a2.32,2.32,0,0,0,.79-1.43h1a.21.21,0,0,0,.2-.2v-.62A.18.18,0,0,0,19,24.67Z"/></g></g></svg>