<svg xmlns="http://www.w3.org/2000/svg" viewBox="0 0 16.99 17.01"><defs><style>.cls-1{fill:#fff;}</style></defs><g id="Layer_2" data-name="Layer 2"><g id="Layer_1-2" data-name="Layer 1"><path class="cls-1" d="M17,1.76V15.25a.19.19,0,0,0,0,.07,2,2,0,0,1-.81,1.32,2.42,2.42,0,0,1-.93.37H3.08A.45.45,0,0,0,3,17a2,2,0,0,1-1.48-1.16,2.42,2.42,0,0,1-.17-1.16v-.45H0V12.88H1.31V4.12H0V2.79H1.32c0-.26,0-.5,0-.74a3.2,3.2,0,0,1,.11-.7A2,2,0,0,1,3.38,0H15a2,2,0,0,1,1.58.82A2.28,2.28,0,0,1,17,1.76ZM6.24,1.33V15.68h8.63a.69.69,0,0,0,.8-.79V2.12a.69.69,0,0,0-.8-.79H6.24ZM4.89,15.68V1.33c-.55,0-1.09,0-1.63,0a.61.61,0,0,0-.6.55c0,.29,0,.59,0,.91H4V4.13H2.66v8.76H4v1.33H2.65c0,.29,0,.56,0,.83a.64.64,0,0,0,.62.62C3.81,15.69,4.34,15.68,4.89,15.68Z"/><path class="cls-1" d="M15.23,17a2.42,2.42,0,0,0,.93-.37A2,2,0,0,0,17,15.32a.19.19,0,0,1,0-.07V17Z"/><path class="cls-1" d="M9,14.48V13.16H7.64v1.32Zm0-4H7.64v1.31H9ZM7.64,9.16h1.3V7.85H7.64Zm0-4V6.5H9V5.19Zm0-1.35h1.3V2.53H7.64Zm4,10.64V13.17H10.29v1.31Zm-1.31-2.67H11.6v-1.3H10.29Zm0-4V9.16h1.3V7.85Zm1.31-2.66H10.3V6.5h1.31ZM10.29,3.84H11.6V2.53H10.29ZM13,13.16v1.31h1.31V13.16Zm0-2.65v1.3h1.31v-1.3Zm1.32-2.66H13V9.16h1.32ZM13,6.5h1.31V5.19H13Z"/><path class="cls-1" d="M9,14.48H7.64V13.16H9Z"/><path class="cls-1" d="M9,10.51v1.31H7.64V10.51Z"/><path class="cls-1" d="M7.64,9.16V7.85h1.3V9.16Z"/><path class="cls-1" d="M7.64,5.19H9V6.5H7.64Z"/><path class="cls-1" d="M7.64,3.84V2.53h1.3V3.84Z"/><path class="cls-1" d="M11.6,14.48H10.29V13.17H11.6Z"/><path class="cls-1" d="M10.29,11.81v-1.3H11.6v1.3Z"/><path class="cls-1" d="M10.3,7.85h1.3V9.16H10.3Z"/><path class="cls-1" d="M11.61,5.19V6.5H10.3V5.19Z"/><path class="cls-1" d="M10.29,3.84V2.53H11.6V3.84Z"/><path class="cls-1" d="M13,13.16h1.31v1.31H13Z"/><path class="cls-1" d="M13,10.51h1.31v1.3H13Z"/><path class="cls-1" d="M14.27,7.85V9.16H13V7.85Z"/><path class="cls-1" d="M13,6.5V5.19h1.31V6.5Z"/></g></g></svg>