<svg xmlns="http://www.w3.org/2000/svg" viewBox="0 0 55.04 55.04"><defs><style>.cls-1{fill:#f6d738;}.cls-2{fill:#f3cc30;}.cls-3{fill:#edbd31;}.cls-4{fill:#f7db5e;}.cls-5{fill:#d49a34;}</style></defs><g id="Layer_2" data-name="Layer 2"><g id="Layer_1-2" data-name="Layer 1"><path class="cls-1" d="M0,26.17A27.52,27.52,0,1,1,26.17,55,27.53,27.53,0,0,1,0,26.17Z"/><path class="cls-2" d="M4.19,26.37A23.36,23.36,0,1,1,26.37,50.85,23.36,23.36,0,0,1,4.19,26.37Z"/><path class="cls-3" d="M40.7,8.21A23.36,23.36,0,0,1,19.28,43.13a23.21,23.21,0,0,1-12-4A23.36,23.36,0,1,0,40.7,8.21Z"/><path class="cls-4" d="M8.17,28.71A20.62,20.62,0,0,1,45.7,18,20.62,20.62,0,1,0,10.41,39.11a20.51,20.51,0,0,1-2.24-10.4Z"/><path class="cls-5" d="M37.72,21.73a.63.63,0,0,0-.46-.18H33.79a7,7,0,0,0-1.29-2.91h4.72a.64.64,0,0,0,.46-.19.62.62,0,0,0,.18-.46V15.92a.62.62,0,0,0-.18-.46.65.65,0,0,0-.47-.19H20.37a.67.67,0,0,0-.47.19.62.62,0,0,0-.18.46v2.69a.66.66,0,0,0,.19.46.62.62,0,0,0,.46.19h2.94c2.84,0,4.65.77,5.42,2.29H20.37a.66.66,0,0,0-.47.18.64.64,0,0,0-.18.47v2.06a.64.64,0,0,0,.18.47.66.66,0,0,0,.47.18H29a4,4,0,0,1-2.08,2.53,9.15,9.15,0,0,1-4.3.87H20.37a.63.63,0,0,0-.46.2.64.64,0,0,0-.19.45v2.57a.61.61,0,0,0,.18.45Q23.8,36.1,30,43.54a.59.59,0,0,0,.5.24h3.95a.6.6,0,0,0,.59-.36.56.56,0,0,0-.08-.69Q29,35.49,25.65,31.88a10.29,10.29,0,0,0,5.59-2.23,7.57,7.57,0,0,0,2.61-4.74h3.41a.63.63,0,0,0,.46-.18.64.64,0,0,0,.18-.47V22.2A.64.64,0,0,0,37.72,21.73Z"/></g></g></svg>