<svg xmlns="http://www.w3.org/2000/svg" viewBox="0 0 23.62 37.03"><defs><style>.cls-1{fill:#fff;}</style></defs><g id="Layer_2" data-name="Layer 2"><g id="Layer_1-2" data-name="Layer 1"><path class="cls-1" d="M23.38,8.39a.81.81,0,0,0-.6-.24h-4.5A9.17,9.17,0,0,0,16.6,4.37h6.12a.81.81,0,0,0,.84-.85V.84a.79.79,0,0,0-.23-.6A.82.82,0,0,0,22.72,0H.84a.8.8,0,0,0-.6.24A.8.8,0,0,0,0,.84v3.5a.79.79,0,0,0,.25.59.79.79,0,0,0,.59.25H4.66q5.54,0,7,3H.84a.8.8,0,0,0-.6.24A.81.81,0,0,0,0,9v2.69a.81.81,0,0,0,.24.6.8.8,0,0,0,.6.24H12.07a5.13,5.13,0,0,1-2.69,3.29,12,12,0,0,1-5.59,1.13H.84a.79.79,0,0,0-.59.25.78.78,0,0,0-.25.59v3.34a.78.78,0,0,0,.24.58q5,5.36,13.09,15A.78.78,0,0,0,14,37h5.13a.76.76,0,0,0,.76-.47.73.73,0,0,0-.1-.9Q12.1,26.26,7.71,21.57A13.33,13.33,0,0,0,15,18.67a9.88,9.88,0,0,0,3.39-6.15h4.42a.82.82,0,0,0,.84-.84V9A.81.81,0,0,0,23.38,8.39Z"/></g></g></svg>