<svg xmlns="http://www.w3.org/2000/svg" viewBox="0 0 16.35 25.63"><defs><style>.cls-1{fill:#fff;}</style></defs><g id="Layer_2" data-name="Layer 2"><g id="Layer_1-2" data-name="Layer 1"><path class="cls-1" d="M16.18,5.81a.57.57,0,0,0-.42-.17H12.65A6.38,6.38,0,0,0,11.49,3h4.24a.57.57,0,0,0,.42-.16.61.61,0,0,0,.16-.42V.58a.61.61,0,0,0-.16-.42A.57.57,0,0,0,15.73,0H.58A.57.57,0,0,0,.16.16.57.57,0,0,0,0,.58V3a.57.57,0,0,0,.17.41.55.55,0,0,0,.41.18H3.22q3.84,0,4.88,2.05H.58a.57.57,0,0,0-.42.17A.54.54,0,0,0,0,6.22V8.08a.57.57,0,0,0,.16.42.57.57,0,0,0,.42.16H8.36a3.56,3.56,0,0,1-1.87,2.28,8.26,8.26,0,0,1-3.87.78h-2a.55.55,0,0,0-.41.18.56.56,0,0,0-.17.4v2.32a.55.55,0,0,0,.16.4q3.5,3.7,9.07,10.39a.52.52,0,0,0,.45.22h3.55a.53.53,0,0,0,.53-.33.5.5,0,0,0-.07-.62q-5.31-6.51-8.36-9.75a9.24,9.24,0,0,0,5-2,6.83,6.83,0,0,0,2.35-4.26h3a.57.57,0,0,0,.42-.16.57.57,0,0,0,.17-.42V6.23A.57.57,0,0,0,16.18,5.81Z"/></g></g></svg>